<svg width="41" height="51" viewBox="0 0 41 51" fill="none" xmlns="http://www.w3.org/2000/svg">
<path d="M11.95 8.69999C11.95 4.0608 15.778 0.299988 20.5 0.299988C25.2221 0.299988 29.0501 4.0608 29.0501 8.69999V19.9C29.0501 24.5392 25.2221 28.3 20.5 28.3C15.778 28.3 11.95 24.5392 11.95 19.9V8.69999Z" fill="white"/>
<path d="M23.35 39.3015C33.0181 37.9429 40.4501 29.7741 40.4501 19.9C40.4501 18.3536 39.1741 17.1 37.6001 17.1C36.026 17.1 34.75 18.3536 34.75 19.9C34.75 27.632 28.3701 33.9 20.5 33.9C12.63 33.9 6.25005 27.632 6.25005 19.9C6.25005 18.3536 4.97406 17.1 3.40005 17.1C1.82604 17.1 0.550049 18.3536 0.550049 19.9C0.550049 29.7741 7.98201 37.9429 17.65 39.3015V45.1H9.10005C7.52604 45.1 6.25005 46.3536 6.25005 47.9C6.25005 49.4464 7.52604 50.7 9.10005 50.7H31.9001C33.4741 50.7 34.75 49.4464 34.75 47.9C34.75 46.3536 33.4741 45.1 31.9001 45.1H23.35V39.3015Z" fill="white"/>
</svg>
