<svg width="41" height="65" viewBox="0 0 41 65" fill="none" xmlns="http://www.w3.org/2000/svg">
<path d="M19.5563 10.5686C20.2432 12.1793 18.7849 12.1313 18.8461 13.1483C17.8913 13.6443 16.4474 14.3235 15.613 15.0257C15.4782 15.1342 15.9079 15.2427 15.613 15.4969C14.4622 16.4783 13.2251 17.3139 12.1481 18.4162C10.6053 18.9602 9.50304 21.2608 8.05736 22.036C7.50714 21.7088 6.93173 21.4671 6.34375 21.2128C6.78429 20.3168 11.5978 16.7574 11.659 16.3574C11.659 16.2845 11.1555 15.3031 11.0818 15.1342C11.7309 14.6613 15.8216 11.4042 16.1165 11.3917C16.4581 11.381 16.6182 11.7793 16.8267 11.7437C16.9364 11.7313 17.8913 10.5685 18.1124 9.75781C18.6627 9.83071 19.4592 10.5454 19.5329 10.581L19.5563 10.5686Z" fill="#7D88AC"/>
<path d="M40.4612 35.2584C40.2167 38.359 38.5624 43.7105 37.3271 46.436C37.0448 47.0653 36.2482 48.1303 36.4694 48.3597C36.4568 48.3845 36.4209 48.8326 36.2356 48.941C36.1134 49.0139 36.322 48.1552 35.2449 49.2931L32.2564 49.5224C32.1216 49.1473 32.5999 49.3891 32.2079 49.0513C32.7096 49.1117 33.1141 48.9179 33.5421 48.5784C34.1049 48.1303 34.4357 47.597 34.0204 46.8218C34.1786 46.7258 34.4232 46.484 34.3998 46.2422C34.7055 46.5445 35.0489 46.7134 34.9752 46.1195C34.9752 45.6111 35.8689 46.9196 35.93 45.067C36.8614 44.6439 36.9963 43.9647 37.07 42.8393C37.9511 42.7895 37.8036 41.0828 37.8288 40.9619C37.8899 40.6347 38.2082 39.4115 38.2082 39.328C38.771 39.4115 38.9796 38.7341 38.967 38.1528C38.967 37.7047 38.8321 37.7652 38.771 37.5714C38.7099 37.3527 38.6361 37.2087 38.575 36.99C38.735 36.7358 38.8447 36.4566 38.9544 36.1668C38.9921 36.0815 39.0407 36.0211 39.0533 35.9375C39.8247 36.2522 39.7762 35.7437 39.8121 35.7064C39.947 35.5499 40.1789 35.1623 40.1915 35.125L40.4738 35.2459L40.4612 35.2584Z" fill="#AEB5C3"/>
<path d="M34.7666 17.3618C35.538 17.8828 38.0247 19.5184 38.5138 20.05C40.9017 22.6422 41.2578 31.1299 40.8406 34.787H40.6446C40.7057 34.2181 40.8172 33.6012 40.8406 33.0305C40.8406 32.7531 40.9521 29.592 40.5098 29.992C40.3767 30.1129 40.6087 30.6694 40.2778 30.5734C40.2526 30.0169 40.2292 29.496 40.1807 28.9378L40.4612 28.8773L40.3641 29.4587C41.1715 30.9005 40.2526 26.1784 40.1681 24.6637C39.7509 23.732 39.6772 22.5942 39.2133 21.6857C39.1144 21.5044 38.6738 20.6189 38.6361 20.5709C38.4527 20.3291 35.7339 18.1619 35.5991 18.8766C35.074 18.5015 31.1541 16.0302 30.897 16.0675C30.8718 16.0675 30.6399 16.5636 30.6651 16.6489C29.7696 16.1387 28.9371 15.4257 28.056 14.8923C26.4395 14.3839 24.8104 13.1003 23.3036 13.1358C23.4025 12.9545 21.8219 12.894 21.7374 12.9065L23.3539 11.1499C26.4754 12.3624 31.8284 15.3884 34.754 17.3512L34.7666 17.3618Z" fill="#AEB5C3"/>
<path d="M11.107 15.1343C11.1681 15.3156 11.695 16.297 11.6824 16.3574C11.6087 16.7575 6.80773 20.3169 6.36719 21.2129C5.64435 20.8982 4.89812 20.644 4.18787 20.2813C6.22153 18.4163 8.90254 16.7202 11.1196 15.1343H11.107Z" fill="#65697F"/>
<path d="M4.1752 20.2795C4.88546 20.644 5.63349 20.8982 6.35453 21.2129C6.93173 21.4672 7.50709 21.7089 8.0699 22.0361C8.04472 22.0485 8.22994 22.3632 7.59161 22.2654C6.46599 22.0609 6.06141 21.3213 5.41229 22.6174C5.08143 23.2717 4.89806 23.9367 4.75061 24.7243C3.66096 23.7429 2.30158 24.4576 1.81249 25.8994C1.39533 25.2452 1.44387 26.1039 1.05188 26.1288C1.73876 24.422 2.68094 22.8361 3.23296 21.044C3.56381 20.5835 4.13922 20.3293 4.18777 20.2795H4.1752Z" fill="#393A53"/>
<path d="M34.7666 17.362C31.8393 15.4135 26.4881 12.3857 23.3647 11.1625C21.162 10.3038 22.7048 11.3083 19.6174 12.7982C20.3277 11.2834 20.1209 10.9083 21.6637 10.5705C22.1402 10.4727 22.7048 10.4727 23.1813 10.4478C23.4025 10.4478 23.6344 10.4478 23.843 10.4478C23.647 10.7518 23.4259 10.8851 23.4636 10.9687C23.7945 11.8897 25.2761 8.72856 25.3624 8.34098H25.5584C25.215 10.3873 23.5859 11.3563 24.467 11.5021C25.2887 11.6354 26.1824 8.42634 26.2309 7.57829C26.1824 6.9738 26.0835 6.36755 26.0349 5.76306C26.0349 5.71328 26.2309 5.51946 26.0349 4.70874C26.8189 7.06978 26.3046 9.69755 24.8967 11.5501C28.252 13.3067 31.6936 14.8925 34.7792 17.3389L34.7666 17.362Z" fill="#676973"/>
<path d="M18.1358 9.28513C18.2958 9.28513 18.1861 9.58913 18.1358 9.75803C17.9164 10.5688 16.9616 11.7315 16.8501 11.7439C16.6415 11.7795 16.4833 11.3813 16.1399 11.3919L16.3359 10.9208C16.7764 11.1502 18.161 9.83094 17.8553 9.34557C17.929 9.22467 18.125 9.31002 18.1358 9.28513Z" fill="#AEB5C3"/>
<path d="M31.5336 53.6169C31.5336 53.7733 31.5336 53.9316 31.5336 54.088L31.3376 55.2632C31.1668 55.2152 30.052 55.4196 30.5788 54.9112C31.192 55.5423 31.325 54.2694 30.9582 53.4462C30.3217 52.0292 26.979 52.223 27.1624 55.2632C27.1246 55.3236 26.8927 55.3841 26.8801 55.4321C26.8189 55.6988 27.4069 56.7762 27.0761 57.1282C26.8064 53.9067 23.9779 53.8818 21.9946 53.5067C26.035 54.4152 30.0286 48.4343 31.5462 53.6275L31.5336 53.6169Z" fill="#0B1535"/>
<path d="M8.63282 43.2143C8.95108 44.1957 9.57679 44.9459 10.0533 45.794C10.3608 46.338 11.8299 49.4867 12.1967 49.5347C12.7109 48.6635 13.9732 52.006 15.0017 52.2229C15.0503 52.7313 15.4908 52.9252 15.8594 52.9252C15.8468 53.0958 15.9691 53.2772 16.0536 53.3981C15.6742 53.5439 15.7857 53.7376 15.7731 53.7501C15.6742 53.8212 15.356 53.7376 15.1977 54.2212C14.9514 54.0274 14.8291 53.8941 14.6223 53.6398C14.6097 53.6167 14.6942 53.6399 14.34 53.1687C14.1926 52.9749 13.8869 52.7687 13.7646 52.5874C13.752 52.5625 13.8006 52.4664 13.5686 52.1144C13.3115 51.7393 13.067 51.0619 12.8098 50.6494C12.4053 49.9951 12.283 50.3827 12.2344 50.3596C12.1967 50.3347 12.2344 49.6325 11.6572 50.1285C11.1933 49.4991 10.7402 48.9053 10.4219 48.1426C10.9236 47.1026 10.1648 47.6946 9.84471 47.3194C9.77279 47.2341 9.18479 45.5878 8.8899 45.3335C8.93845 45.2002 9.13449 44.5459 8.98884 44.5104C8.85398 44.2206 8.67056 44.6562 8.41343 44.281C8.2534 44.0499 8.24083 43.2143 7.93515 42.8765C7.81287 42.7432 7.83623 42.6329 7.73914 42.6454C8.03223 41.9555 8.15628 42.5973 8.59682 43.2267L8.63282 43.2143Z" fill="#5B5174"/>
<path d="M7.11519 38.0691C7.09001 38.3838 7.16377 38.6985 7.21232 39.0007C6.85809 38.7109 6.8203 41.4471 6.92999 42.2222C6.98034 42.5974 7.18713 42.985 7.3112 43.3352C8.11855 45.6607 6.72321 42.6934 6.55059 42.1618C5.87809 40.0301 6.15863 35.0289 5.88892 32.3407C6.58838 32.5594 6.21974 32.1345 6.46608 31.6384C6.72321 33.7701 6.86887 35.9374 7.126 38.0691H7.11519Z" fill="#65697F"/>
<path d="M30.5788 54.9111C30.4188 54.7404 28.9372 52.1376 27.1624 55.2614C26.979 52.2229 30.3217 52.0292 30.9582 53.4461C31.325 54.2569 31.1902 55.5405 30.5788 54.9111Z" fill="#9BA1B6"/>
<path d="M9.86986 47.307C9.38077 47.7674 9.18477 48.155 9.86986 48.3612C10.323 49.8991 11.1555 51.1827 11.8657 52.5144C12.0006 52.7562 11.9521 53.1313 11.9647 53.1562C11.5727 52.6957 10.8372 51.7641 10.5441 51.2787C10.0533 50.4929 9.24589 48.8093 8.82873 47.8883C9.22072 47.8279 9.29444 47.1985 9.20813 46.8358C9.06248 46.194 8.78018 46.7149 8.44933 46.3149C8.36302 46.0855 8.82877 45.6126 8.92767 45.321C9.22076 45.5877 9.8087 47.2358 9.88242 47.307H9.86986Z" fill="#393A53"/>
<path d="M7.21233 39.0007C7.32202 39.7279 7.86145 42.4872 7.97113 41.6284C7.98372 41.4951 7.28605 40.0177 7.59173 39.703C7.77514 40.7679 8.22827 41.8453 8.73174 42.7414L8.63286 42.864C8.46204 42.4871 8.07 42.2934 8.02145 41.8098C7.46943 42.5245 7.61691 43.0205 7.59173 43.0934C7.59173 43.1183 7.48204 42.9956 7.31122 43.3228C7.18895 42.985 6.98035 42.5849 6.93001 42.2098C6.82032 41.4346 6.86889 38.7091 7.21233 38.9882V39.0007Z" fill="#393A53"/>
<path d="M8.63284 42.8624C8.63284 42.8624 8.75511 43.25 8.63284 43.2144C8.1923 42.585 8.08258 41.9308 7.7751 42.633C7.66542 42.8748 7.67804 43.9522 7.57915 43.1059C7.60432 43.033 7.45684 42.537 8.00887 41.8223C8.05741 42.3059 8.46198 42.4997 8.62022 42.8748L8.63284 42.8624Z" fill="#AEB5C3"/>
<path d="M6.55051 42.16C6.72313 42.6933 8.11847 45.6607 7.31112 43.3352C7.49453 43.008 7.59164 43.1165 7.59164 43.1058C7.67795 43.9521 7.67796 42.8872 7.78765 42.6329C7.87396 42.6205 7.84874 42.7289 7.9836 42.8623C8.03215 43.433 8.16705 43.8312 8.46194 44.2668C8.48532 44.3166 8.57158 45.0793 9.0373 44.4979C9.19553 44.5335 8.98876 45.1877 8.93841 45.3211C8.84131 45.6109 8.38822 46.0838 8.46194 46.3131C8.79279 46.7132 9.07329 46.2047 9.22074 46.834C7.72651 46.786 8.80358 47.7906 8.84134 47.8884C9.25671 48.8075 10.0659 50.4912 10.5549 51.2788C10.519 51.2788 10.3104 51.0245 10.3589 51.3392C10.6053 52.8291 17.3896 60.3123 20.0957 61.571C22.2139 62.5631 22.4836 62.2004 24.4184 61.3417C25.3247 60.9292 27.3583 60.5772 27.076 57.1263C27.4195 56.776 26.8189 55.6986 26.88 55.4319C26.8926 55.3715 27.1246 55.3235 27.1623 55.263C28.9497 52.1375 30.4187 54.7421 30.5787 54.911C30.0519 55.4195 31.1667 55.2133 31.3375 55.263C31.4238 55.2862 31.5101 55.4444 31.8158 55.384C31.0067 56.3885 30.1993 57.4179 29.3902 58.4224C26.4646 60.627 24.1613 64.0903 20.646 64.9739C13.7646 59.0766 9.64868 54.0879 5.20374 45.3211C5.79172 44.9691 5.48606 44.7771 5.48606 44.7397C6.66203 38.0193 5.32599 42.7289 7.66533 44.6793C5.48602 46.2296 8.63273 46.955 8.24074 45.1522C8.15623 44.7877 6.58827 44.025 6.52713 42.1724L6.55051 42.16Z" fill="#2D244E"/>
<path d="M29.8199 55.9529C29.721 56.9325 29.1834 57.5388 28.3994 57.1263C29.1205 57.0552 28.484 56.8116 28.4965 56.7156C28.4965 56.6676 28.6925 56.3156 28.6925 55.6613C28.6925 55.5884 28.056 54.5003 29.2193 55.0195C29.4765 55.1297 29.6977 56.2196 29.8308 55.9529H29.8199Z" fill="#706F9E"/>
<path d="M29.8199 55.9512C29.685 56.2179 29.4639 55.128 29.2067 55.0195C28.0434 54.5111 28.6799 55.5884 28.6799 55.6613C28.6799 56.3156 28.4965 56.6534 28.4839 56.7139C28.4839 56.7992 29.1204 57.0534 28.3868 57.1263C26.0834 55.928 30.0771 53.1794 29.8073 55.9512H29.8199Z" fill="#7D88AC"/>
<path d="M9.20813 46.8339C9.29444 47.1966 9.22072 47.826 8.82873 47.8883C8.79277 47.7905 7.7139 46.7859 9.20813 46.8339Z" fill="#F2AEDB"/>
<path d="M8.44935 44.2561C8.15626 43.8205 8.02142 43.4205 7.97107 42.8516C8.27855 43.1894 8.28932 44.025 8.44935 44.2561Z" fill="#9BA1B6"/>
<path d="M9.01218 44.498C8.55905 45.0776 8.47453 44.3042 8.43677 44.2668C8.6939 44.642 8.87732 44.2064 9.01218 44.498Z" fill="#9BA1B6"/>
<path d="M1.79993 25.8993C1.61652 27.6416 0.318266 28.6586 1.22452 30.6338C2.55872 33.5513 6.37976 30.5841 3.50278 27.9457C3.53874 27.1456 5.18037 28.8044 5.59573 30.9841C5.76835 31.8802 6.07408 39.3633 5.97519 40.2238C5.89068 40.9865 4.81178 43.5289 5.11926 44.7876C5.24153 45.273 5.37639 45.0917 5.49866 44.7272C5.49866 44.7645 5.80432 44.9583 5.21633 45.3086C4.35863 43.6142 2.91478 40.7447 2.27645 39.0486C1.99595 38.2983 0.145676 32.2197 0.0971272 31.7948C2.8971e-05 31.0819 0.170821 29.6044 0 28.6355C0.463914 27.8728 0.710274 26.9643 1.04113 26.1162C1.43312 26.0931 1.38276 25.2326 1.79993 25.8869V25.8993Z" fill="#0B1535"/>
<path d="M2.27641 34.7869C2.08042 35.5977 1.56612 37.1356 3.46493 37.4752C5.04547 37.7525 4.59235 36.3728 3.31748 36.4813C3.59979 37.1604 2.85361 36.2395 2.74213 35.9603L3.22041 35.731C3.24558 35.8163 3.17184 35.9728 3.31748 35.9603C3.75982 36.3853 4.49348 35.8519 4.55462 35.8395C5.84027 35.5977 5.32602 37.5231 4.32267 37.7169C0.366814 38.4796 1.62727 31.336 4.41974 32.2196C5.7917 32.6552 4.84948 35.9248 3.75982 32.922C2.64499 33.0055 2.54611 33.7327 2.28898 34.7976L2.27641 34.7869Z" fill="#AEB5C3"/>
<path d="M2.46168 34.787C2.88963 35.0893 2.6451 35.6955 2.7422 35.9604C2.85368 36.252 3.58727 37.1605 3.31755 36.4814C4.59242 36.3729 5.04554 37.7526 3.465 37.4752C1.56799 37.1357 2.0823 35.5977 2.27829 34.787C2.35022 34.787 2.44907 34.7746 2.47425 34.787H2.46168Z" fill="#6B4980"/>
<path d="M4.55459 39.7029C4.55459 39.7029 4.5312 39.8114 4.65348 39.8238C4.66606 39.9945 4.47005 39.9092 4.45746 39.9945C4.45746 40.0301 4.61571 40.2363 4.65348 40.2843C4.71461 40.3821 4.73979 40.5759 4.80092 40.6363C4.89802 40.7448 5.30259 40.2718 5.03287 40.8657C4.68943 41.0843 3.03696 41.1199 3.51347 39.4611C3.82094 39.1944 4.29746 39.6425 4.55459 39.6905V39.7029Z" fill="#65697F"/>
<path d="M4.55468 39.7029C4.29755 39.6425 3.82103 39.2069 3.51355 39.4718C3.99185 37.8023 5.54724 38.117 5.31529 38.9526C5.2038 39.3509 4.47017 38.9526 4.55468 39.7153V39.7029Z" fill="#9BA1B6"/>
<path d="M3.12159 34.0846C3.3913 35.2456 3.1953 35.6456 3.22047 35.7185L2.74219 35.9479C2.64509 35.6936 2.88962 35.0891 2.46167 34.7745C2.48505 34.1558 2.64509 34.0118 3.12159 34.0722V34.0846Z" fill="#A28097"/>
<path d="M3.97925 34.7869C3.86957 35.1851 3.97925 35.6581 4.35865 35.3683C4.38383 35.6936 4.33529 35.6225 4.55466 35.8394C4.49353 35.8518 3.75987 36.3852 3.31934 35.9603C3.91811 34.8829 3.53871 34.9433 3.97925 34.7869Z" fill="#062708"/>
<path d="M4.17527 34.6661C4.17527 34.8475 4.05299 34.7621 3.97926 34.787C3.52614 34.931 3.90552 34.8706 3.31754 35.9604C3.17189 35.9604 3.24564 35.8164 3.22047 35.7311C3.19529 35.6458 3.40389 35.2582 3.12158 34.0955C3.30679 34.1203 3.85697 34.6537 4.16265 34.6768L4.17527 34.6661Z" fill="#89C03E"/>
<path d="M5.03296 40.8656C5.30268 40.2718 4.89811 40.743 4.80101 40.6345C4.75066 40.5741 4.7147 40.3803 4.65356 40.2843C5.04555 40.3323 5.04558 40.0905 4.75069 39.8114C4.99703 39.8114 5.04557 39.582 5.08153 39.582C5.39979 39.582 5.51126 40.5616 5.03296 40.8656Z" fill="#9CA5AC"/>
<path d="M4.35862 35.3683C3.97922 35.6581 3.86954 35.1869 3.97922 34.7869C4.05294 34.7638 4.17523 34.8474 4.17523 34.666C4.6787 34.9931 4.3586 35.283 4.37119 35.3683H4.35862Z" fill="#D0FC3C"/>
<path d="M4.64096 40.2842C4.64096 40.2842 4.44495 40.0175 4.44495 39.9926C4.44495 39.9091 4.65354 39.9926 4.64096 39.8237C4.67692 39.8237 4.70207 39.8237 4.73803 39.8237C5.03292 40.1029 5.03295 40.3446 4.64096 40.2966V40.2842Z" fill="#EBECEE"/>
<path d="M21.75 9.86646C21.6026 10.4247 21.3203 10.2914 21.6511 10.5688C20.1209 10.8959 20.3169 11.2835 19.6067 12.7964C22.7048 11.2959 21.162 10.302 23.3539 11.1625L21.7374 12.9191C20.9409 12.9796 20.5237 13.5965 20.4518 13.6214C20.3529 13.6694 20.2432 13.4276 20.0706 13.5005C19.4466 13.7903 17.7564 14.8446 17.5119 15.3761C16.0554 15.8971 14.9028 17.0225 13.6172 18.0644C13.6172 18.0644 13.3474 18.0644 13.3366 18.0644C12.5886 18.6937 10.7527 20.7401 10.5801 20.7525C10.5315 20.7525 10.5675 20.4254 10.3481 20.5232C10.911 19.7231 11.499 19.0938 12.1481 18.4164C13.2251 17.3016 14.4748 16.466 15.613 15.4971C15.9079 15.2428 15.4782 15.1468 15.613 15.0259C16.4456 14.3237 17.8913 13.6569 18.8461 13.1485C18.7849 12.1315 20.2432 12.1795 19.5563 10.5688C19.7649 10.6541 20.0831 10.5456 20.1695 10.9208L21.7374 9.86646H21.75Z" fill="#AEB5C3"/>
<path d="M12.1481 18.4163C11.499 19.0936 10.8984 19.723 10.3482 20.5231C8.71908 22.8592 9.2693 22.6779 9.20816 22.7988C9.09848 23.0299 8.84137 23.2841 8.73169 23.5615C8.21743 23.4779 7.71395 23.3446 7.21228 23.2112L7.59168 22.2778C8.21742 22.3756 8.034 22.0609 8.06996 22.0485C9.51565 21.2733 10.6179 18.9727 12.1607 18.4269L12.1481 18.4163Z" fill="#676973"/>
<path d="M9.86986 23.3197C9.79614 27.6311 8.78022 33.2848 9.01218 37.9963C9.09849 38.6008 9.34303 38.8798 9.39158 39.1092C9.86987 41.1804 10.1647 41.2658 10.2493 41.4471C10.8498 42.8268 10.7509 43.0455 11.8657 44.2562C12.6245 45.0794 13.2251 45.3461 14.0469 46.011C16.3736 47.8885 18.7849 49.6077 20.9768 51.7394C21.6763 52.8648 22.8397 52.0185 23.6848 51.51C24.4058 51.0727 25.2887 50.0557 25.1538 50.5766C24.3699 51.2558 23.5247 52.079 22.5933 52.4541C22.0557 52.671 21.358 52.7439 20.7934 52.8043C19.2147 50.5286 16.8268 49.3534 14.8057 47.78C11.6824 45.3461 9.35559 43.2873 8.15625 38.6007C8.24076 34.0973 7.7391 25.8017 9.95618 22.1694C9.61274 23.053 9.85729 23.2717 9.85729 23.3446L9.86986 23.3197Z" fill="#03081A"/>
<path d="M37.2282 33.612C37.2407 33.9267 37.3504 34.2182 37.327 34.8351C37.1059 35.5854 37.0447 37.0397 36.9476 37.5233C36.6905 38.7714 35.9425 40.6347 35.4282 41.7974C35.2089 41.1325 34.3871 43.2144 33.4323 44.1353C33.4072 44.1585 33.2723 44.2189 33.2363 44.2562C33.1752 44.3167 33.0781 44.0251 32.4775 44.7273C32.3553 44.8731 32.1467 44.9941 32.0981 45.2003C32.0478 45.4065 32.0981 45.6128 32.1952 45.7817C31.8644 46.2421 31.4364 46.4839 31.057 46.8359C31.1415 46.363 30.4691 46.907 30.2479 47.0653C28.3383 48.4449 24.8715 52.1021 23.1705 52.7919C23.1939 52.2727 22.7785 53.1439 22.5951 52.4417C23.5373 52.0665 24.3698 51.2434 25.1538 50.5642C25.7544 50.0557 30.1993 45.9274 30.5662 45.5398C32.233 43.7833 35.2934 39.5946 35.9803 37.1126C35.9803 37.1002 36.0648 37.1126 36.1763 36.9419C36.3471 35.9001 35.6369 31.8572 35.698 31.5656C35.7232 31.4447 36.4442 30.7069 36.5557 30.4526C36.6168 31.2385 36.5791 30.186 36.8362 30.6215C36.8614 31.6154 37.1671 32.6074 37.2174 33.5995L37.2282 33.612Z" fill="#8791A1"/>
<path d="M14.8183 47.7676C16.8376 49.3428 19.2147 50.5286 20.806 52.7937C20.7089 52.7937 20.0472 53.0354 19.9986 53.023C15.4674 49.645 8.57164 45.3816 7.50716 38.4087C7.50716 37.6691 7.45678 36.8335 7.98363 36.5312C8.04477 37.1251 7.82542 38.2149 8.26596 39.8612C8.90249 42.2703 12.6246 47.1737 14.8183 47.7551V47.7676Z" fill="#65697F"/>
<path d="M8.73171 23.5615C8.24083 24.8576 8.38827 24.9056 8.35231 25.0869C7.5072 28.817 7.45683 31.13 7.69058 35.0289C7.72655 35.6814 7.96031 36.3606 7.9711 36.5544C7.45684 36.8442 7.50716 37.6922 7.49457 38.4318C7.49457 39.0612 7.48202 39.0968 7.5917 39.7137C7.28602 40.0302 7.98369 41.5058 7.9711 41.6391C7.86142 42.4996 7.32379 39.7386 7.2123 39.0114C7.16375 38.7092 7.09 38.3945 7.11517 38.0798C7.32376 37.8611 7.17631 37.0753 7.11517 36.4459C6.94256 33.0057 6.62432 29.4819 6.8329 25.9706C6.06151 27.0977 6.27011 26.0434 5.97522 25.8017C6.0867 25.5723 6.1478 25.135 6.17118 25.0994C6.18376 25.0745 6.37978 25.0265 6.4535 24.87C6.72322 24.3491 6.91918 23.7909 7.11517 23.2344C7.13855 23.2344 7.17634 23.2344 7.2123 23.2344C7.71398 23.3677 8.23004 23.5011 8.73171 23.5864V23.5615Z" fill="#7D8296"/>
<path d="M22.6922 54.088C23.1202 54.7779 24.5892 54.7299 25.4469 56.1344C26.488 57.8305 25.3624 60.1311 25.1664 57.7096C25.1664 57.6847 25.4235 57.6491 25.3624 57.2971C25.1898 56.3531 21.9694 53.4231 21.6511 57.5869C21.6385 57.818 21.5163 57.9389 21.5522 58.1683C21.5522 58.1576 21.4191 58.2181 21.3562 58.1078C21.3328 58.0474 21.6385 57.3451 20.6963 57.5869C21.1494 56.3157 21.1728 54.6089 20.3169 53.5546C20.3888 53.4337 22.4477 54.0027 22.6922 54.0756V54.088Z" fill="#312364"/>
<path d="M31.0552 46.8359C29.8811 47.9009 28.0074 49.6806 26.88 50.5766C25.4469 51.702 21.9819 53.7733 23.9778 52.8043C26.916 51.3873 29.6599 49.0867 32.5746 47.5382C32.562 47.6591 32.3534 47.8405 32.2923 47.8885C30.897 48.8219 29.5736 49.9472 28.1171 50.758C28.2645 51.8354 30.2838 50.4309 30.0644 51.3998C28.9244 50.9642 27.8726 51.6416 26.8315 52.1021C27.1497 51.6416 28.3742 51.3998 27.8725 50.6975C25.8766 52.006 23.0716 53.8942 20.7448 53.3857C19.63 53.1439 21.7985 53.3501 23.1687 52.8043C24.8715 52.1145 28.3383 48.4574 30.2479 47.0778C30.469 46.9195 31.1415 46.3755 31.0552 46.8466V46.8359Z" fill="#565C6C"/>
<path d="M15.2822 51.0495C14.4137 50.0805 13.36 49.4387 12.4789 48.4698C11.2904 47.1861 10.1018 44.8251 10.0533 45.7816C9.57678 44.9335 8.95108 44.1832 8.63281 43.2036C8.75508 43.2392 8.63281 42.8765 8.63281 42.8516L8.7317 42.7307C10.3842 45.698 13.9732 48.9427 16.5193 50.7472C16.1273 50.7704 15.3326 50.989 15.2822 51.037V51.0495Z" fill="#65697F"/>
<path d="M15.2822 51.0495C15.2822 51.0495 14.9765 52.0291 15.0017 52.2229C13.9857 52.006 12.7109 48.6636 12.1966 49.5348C11.8424 49.4867 10.3715 46.3381 10.0532 45.7941C10.1036 44.85 11.2903 47.1986 12.4789 48.4822C13.36 49.4387 14.4137 50.093 15.2822 51.0602V51.0495Z" fill="#65697F"/>
<path d="M20.3169 57.9513C19.7415 57.8304 20.3906 57.5033 20.1694 57.3699C19.7037 57.5513 19.7289 57.4179 19.4106 57.0196C19.2991 57.4783 19.0312 57.7326 18.7974 58.0722C19.6677 56.28 19.9123 55.2275 18.9935 53.3981C19.2632 53.1812 18.0387 52.054 18.846 52.4664C20.6711 53.3856 21.5647 55.8445 20.3169 57.9637V57.9513Z" fill="#70767A"/>
<path d="M18.6141 53.6167C18.8101 54.415 18.8586 54.8026 18.8101 55.7235C18.4666 55.8071 18.6879 55.2382 18.6141 55.0817C18.4541 54.719 17.7079 54.3546 17.6593 54.319C17.2296 53.9546 17.6215 54.0168 17.2295 53.7377C17.0335 53.7128 17.0102 53.967 16.9976 53.967C16.9113 53.9919 16.8753 53.6772 16.5193 54.0879C16.2999 53.7128 16.2748 53.6896 16.0428 53.3856C15.9565 53.2772 15.8342 53.0958 15.8468 52.9145C15.9439 52.9145 15.9439 52.6958 16.2748 52.9145C16.7531 52.054 15.6868 52.975 15.2822 52.4416C15.8091 52.102 16.1273 52.406 16.2388 52.3207C16.4959 52.1269 16.201 51.0744 15.8594 51.1455C17.0102 50.7579 17.9776 52.55 18.6141 53.6043V53.6167Z" fill="#676973"/>
<path d="M23.2676 57.7095C21.7985 56.1716 21.7123 59.6456 23.0716 59.2349C23.1813 59.8038 23.8556 60.131 23.3539 60.579C24.6018 61.244 22.57 61.2564 21.9334 59.3558C21.7482 58.8118 21.9334 58.5202 21.6511 58.7744C21.6511 58.7389 21.6511 58.4117 21.5522 58.1931C21.5163 57.9513 21.6259 57.8304 21.6511 57.6117C21.9694 57.7095 22.8145 56.3778 23.2676 57.7326V57.7095Z" fill="#623A7F"/>
<path d="M33.6157 46.9551C34.4608 47.3924 33.738 47.9116 33.5168 48.5907C33.1015 48.9303 32.6843 49.1117 32.1826 49.0619C31.4598 48.9783 31.7295 48.9908 32.2815 47.8885C32.3534 47.8405 32.5494 47.6573 32.562 47.5364C32.9055 47.3551 33.2597 47.1382 33.6032 46.9551H33.6157Z" fill="#EC8786"/>
<path d="M20.3168 57.9494C19.4106 59.4998 17.7563 59.5247 18.222 58.4704C18.2832 58.3264 18.2346 58.81 18.7004 58.1806C18.7489 58.1077 18.7848 58.0721 18.7974 58.0597C19.042 57.7201 19.2991 57.4658 19.4088 57.0054C19.7288 57.4054 19.7163 57.5387 20.1694 57.3574C20.3888 57.5014 19.7396 57.8179 20.3168 57.9388V57.9494Z" fill="#65697F"/>
<path d="M23.2675 57.7076C23.3053 57.8054 23.3539 57.8534 23.3665 57.9387C23.4024 58.1805 23.3898 58.9184 23.2675 59.1122C23.2675 59.1122 23.1201 59.2224 23.0716 59.233C21.6996 59.658 21.7985 56.1697 23.2675 57.7076Z" fill="#89C03E"/>
<path d="M20.7935 52.8044C21.3689 52.7439 22.0557 52.671 22.5934 52.4523C22.7786 53.1546 23.1939 52.2834 23.1688 52.8044C21.8094 53.3608 19.6301 53.1439 20.7449 53.3857C23.0717 53.8942 25.8641 51.9936 27.8726 50.6976C28.3743 51.3998 27.1498 51.6416 26.8316 52.1021C27.8727 51.6416 28.9245 50.9643 30.0645 51.3999C30.2839 50.4309 28.2646 51.823 28.1172 50.758C29.5737 49.9473 30.8971 48.8326 32.2924 47.8885C31.7422 48.9784 31.4724 48.9784 32.1953 49.0619C32.5873 49.4015 32.109 49.1473 32.2438 49.5348L35.2323 49.3055V49.5348C33.9719 49.9224 32.2924 49.6682 32.2924 49.9473C34.9392 50.9642 34.4232 52.8293 33.285 52.223C32.465 51.7874 32.3661 49.0513 28.3869 50.8789C30.8 50.8185 32.7455 50.2851 32.857 54.1005C32.501 54.5716 32.1701 54.9361 31.8159 55.3841C31.521 55.4446 31.4239 55.2863 31.3376 55.2632L31.5336 54.088C31.5947 56.2802 32.7096 53.8818 32.2924 53.0941C33.2112 52.1874 30.1742 50.1642 30.4925 51.4603C30.5302 51.5936 31.6073 51.8479 31.7296 53.5671C31.7296 53.6649 31.5336 53.6151 31.5336 53.6275C30.016 48.4325 26.0224 54.4152 21.982 53.5067C23.9653 53.8942 26.7938 53.9067 27.0635 57.1264C27.3458 60.5773 25.3121 60.9293 24.4059 61.34C23.0357 61.0147 22.4585 61.0378 21.8472 59.4644L21.9442 59.3435C22.5934 61.244 24.6145 61.2316 23.3648 60.5666C23.8682 60.1186 23.1814 59.7915 23.0843 59.2226C23.1202 59.2101 23.2677 59.1124 23.2803 59.1017C25.5819 61.861 27.175 57.4909 25.1287 55.3592C24.5281 54.7298 23.4637 54.3298 22.7049 54.0755C22.4585 53.9902 20.4015 53.4213 20.3278 53.5546C21.1855 54.6089 21.1603 56.3157 20.7072 57.5869C20.1821 59.0643 18.3084 60.0209 18.0513 59.0519C17.8301 58.2163 18.2096 58.1932 18.7112 58.1807C18.2581 58.8101 18.3085 58.3265 18.2348 58.4705C17.7565 59.5124 19.4107 59.4875 20.3278 57.9496C21.5775 55.8321 20.6838 53.3733 18.8587 52.4523C18.0387 52.0416 19.2758 53.167 19.0061 53.3857C18.7975 52.9857 17.9399 51.8106 17.5371 51.6292C18.0513 52.5377 18.3444 52.4648 18.6267 53.6151C17.9902 52.5751 17.0228 50.7705 15.8702 51.158C15.2463 51.3625 14.964 52.0168 15.2948 52.4417C15.712 52.9733 16.7765 52.0417 16.2874 52.9128C15.9565 52.6959 15.9565 52.9128 15.8576 52.9128C15.4908 52.9128 15.0629 52.7191 15.0017 52.2106C14.9766 52.0168 15.2463 51.0852 15.2823 51.0372C15.3326 50.9874 16.1273 50.7705 16.5193 50.7456C13.9732 48.941 10.3842 45.6964 8.73171 42.729C8.22824 41.833 7.77511 40.7556 7.5917 39.6906C7.48202 39.0737 7.48199 39.0239 7.49457 38.407C8.55906 45.3941 15.4549 49.6433 19.9861 53.0231C20.0347 53.0231 20.6964 52.8044 20.7935 52.7919V52.8044Z" fill="#9CA5AC"/>
<path d="M31.5336 54.088C31.5336 53.9298 31.5336 53.7733 31.5336 53.6151C31.5336 53.6151 31.7296 53.6524 31.7296 53.5546C31.6199 51.8478 30.5302 51.5812 30.4925 51.4478C30.1742 50.1642 33.2112 52.1874 32.2924 53.0835C32.7096 53.8693 31.5947 56.2677 31.5336 54.0755V54.088Z" fill="#9CA5AC"/>
<path d="M15.8576 51.1563C16.201 51.0728 16.4959 52.1253 16.2388 52.3315C16.2388 52.1857 16.1651 52.2231 16.1399 52.2106C16.2496 51.9564 16.1651 51.6417 15.9439 51.5083C15.4908 51.2185 15.1977 51.896 15.2822 52.44C14.9514 52.0044 15.2336 51.3626 15.8576 51.1563Z" fill="#232E4A"/>
<path d="M25.5944 60.5187C25.7904 60.4938 25.7527 60.6147 25.5944 60.748C24.9579 61.3169 22.8146 61.3045 25.5944 60.5187Z" fill="#67758E"/>
<path d="M34.094 45.2002C34.0329 45.5025 34.166 45.6607 34.29 45.9025C34.29 45.9149 34.2901 46.1692 34.3872 46.2545C34.4123 46.4963 34.166 46.7381 34.0078 46.8341C33.7632 46.9923 33.6409 46.9443 33.6284 46.9567C33.2849 47.1505 32.9307 47.355 32.5872 47.5381C29.6725 49.0867 26.9285 51.3873 23.9904 52.8042C21.9819 53.7732 25.4469 51.7144 26.8926 50.5766C28.4732 49.9098 29.8811 48.7365 31.3627 47.7675C32.4775 47.0403 33.6032 47.1985 34.0203 45.1877H34.1174L34.094 45.2002Z" fill="#AEB5C3"/>
<path d="M36.09 44.729C36.0036 44.9103 35.8562 44.8019 35.8939 45.0792C35.8328 46.9194 34.9391 45.6251 34.9391 46.1336C34.9391 46.1211 34.7791 46.0731 34.7432 45.9629C34.6928 45.7691 35.2682 45.1521 34.2648 45.9024C34.1426 45.6606 34.0203 45.5042 34.0689 45.2002C34.2523 44.1601 34.9266 44.4748 35.0237 44.329C35.0848 44.2312 34.8888 44.1476 34.9266 43.9165C35.1963 44.0143 35.1837 44.5583 35.2574 44.6188C35.2934 44.6436 35.9425 44.5708 36.0648 44.7414L36.09 44.729Z" fill="#D16491"/>
<path d="M37.8036 40.9867C37.7802 41.1076 37.9259 42.8144 37.0448 42.8642C36.9225 42.8642 36.8488 42.8269 36.7625 42.7415C36.1133 42.1619 36.5053 40.8178 37.8036 40.9867Z" fill="#F1B3A7"/>
<path d="M38.9436 38.1775C38.9436 38.7465 38.7476 39.4256 38.183 39.3527C38.1722 39.0256 37.7298 38.6007 37.7064 38.4798C37.523 37.3899 38.3682 37.317 38.9436 38.19V38.1775Z" fill="#F1B3A7"/>
<path d="M40.8406 33.0324C40.8173 33.5889 40.7183 34.2183 40.6446 34.7872C40.6338 34.9081 40.4864 35.1144 40.4487 35.2602L40.1681 35.1392C40.3264 34.3872 39.6773 33.2743 40.3642 32.8013C40.3767 32.8262 40.4001 32.5719 40.8406 33.0324Z" fill="#EBECEE"/>
<path d="M37.0448 42.8624C36.971 43.9896 36.8362 44.6545 35.9066 45.0918C35.8562 44.8127 36.0036 44.9212 36.1025 44.7398C36.1511 44.6545 37.3378 43.9167 36.579 42.985L36.775 42.7539C36.8614 42.8268 36.9476 42.8748 37.0573 42.8748L37.0448 42.8624Z" fill="#EBECEE"/>
<path d="M34.9499 46.1318C35.0363 46.7256 34.682 46.5442 34.3745 46.2527C34.29 46.1691 34.2901 45.9149 34.2775 45.9024C35.2808 45.1397 34.7054 45.7691 34.7539 45.9629C34.7791 46.0713 34.9392 46.1211 34.9499 46.1318Z" fill="#B54C80"/>
<path d="M33.5294 48.5908C33.7506 47.9116 34.4735 47.3908 33.6284 46.9552C33.6409 46.9552 33.7632 47.0031 34.0078 46.8342C34.4249 47.6094 34.094 48.1428 33.5294 48.5908Z" fill="#C3314F"/>
<path d="M21.7482 12.9189C21.8345 12.9189 23.4151 12.9794 23.3162 13.1483C24.823 13.1127 26.4521 14.3964 28.0686 14.9049C28.9497 15.4365 29.7948 16.1512 30.6759 16.6596C32.0353 17.4348 33.3461 18.3184 34.718 19.1185C34.7432 19.1309 35.1712 19.106 35.1963 19.1185C35.2575 19.154 35.6369 19.5896 36.2375 19.9417C36.3346 20.0021 36.4209 19.8207 36.4335 19.8207C36.4946 19.8563 37.5105 20.8377 37.5717 20.8732C37.5717 20.8732 37.658 20.7168 37.7191 20.7524C38.0248 20.9337 38.0374 20.667 38.3305 20.8732C38.735 21.1524 38.8447 22.084 39.2367 21.6964C39.7024 22.6174 39.7762 23.7428 40.1915 24.6762C40.2652 26.1892 41.184 30.9112 40.3875 29.4711L40.4864 28.8898L40.2041 28.9502C40.1681 28.5982 40.0333 28.3084 40.2041 27.9582C39.8499 27.7395 39.7276 25.9953 39.5424 25.27C39.4939 25.0762 38.9922 24.2761 38.967 24.2157C38.9436 24.1552 39.1504 23.6468 38.8699 22.8111C38.4653 21.636 37.4979 21.2128 36.6906 20.6439C36.4442 20.4732 36.1637 20.4377 36.1134 20.4128C33.1015 18.3789 24.9579 12.7856 21.822 13.2817C20.0095 13.5715 11.8172 19.202 9.99215 22.1693C7.76429 25.814 8.26595 34.0972 8.19222 38.6007C9.39157 43.2872 11.7202 45.346 14.8417 47.7799C12.6498 47.1985 8.9277 42.2933 8.29116 39.8843C7.84883 38.2379 8.06997 37.1481 8.00883 36.5543C7.98366 36.3605 7.76432 35.6956 7.72656 35.0289C8.08259 33.491 7.86142 31.7469 8.10596 30.2943C7.88659 29.2294 7.96031 28.3937 8.10596 27.3768C8.13114 27.2434 8.38823 27.1937 8.38823 27.1457C8.41341 26.9768 8.37565 25.862 8.38823 25.7411C8.38823 25.6807 8.98881 24.87 8.38823 25.0993C8.4242 24.9304 8.27855 24.8824 8.76763 23.5739C8.87732 23.2948 9.13449 23.0405 9.24597 22.8111C9.30711 22.6902 8.75508 22.8716 10.3842 20.5354C10.6053 20.4377 10.5675 20.7772 10.6179 20.7648C10.7887 20.7523 12.6138 18.6936 13.3726 18.0766C13.3726 18.0766 13.6424 18.0766 13.6549 18.0766C14.9406 17.0348 16.0913 15.9094 17.5478 15.3885C17.7942 14.8551 19.4826 13.815 20.1084 13.511C20.2792 13.4274 20.3889 13.6692 20.4878 13.6319C20.5615 13.6088 20.9768 13.0025 21.7734 12.9296L21.7482 12.9189Z" fill="#CACCE1"/>
<path d="M40.1806 28.9379C40.2292 29.4944 40.2526 30.0153 40.2778 30.5735C40.2903 30.8633 40.1806 30.9843 40.1806 31.2758C39.7275 32.147 39.8732 31.3469 39.0406 31.2154L39.5675 30.2215C39.5675 32.8617 41.0006 27.3147 37.8035 26.1892C38.4401 25.5848 38.2207 25.1723 38.2818 24.8452C38.6612 25.1243 39.1503 26.408 39.3715 26.952C39.6898 26.7831 38.3915 24.1429 38.2818 24.8452C37.3019 24.1305 36.8236 25.1972 37.4727 26.1288C36.1511 25.5119 36.8739 22.4966 38.2333 23.4406C38.8087 23.2344 38.3304 20.8254 36.5664 21.4547L36.6653 20.6316C37.4853 21.2005 38.4527 21.6236 38.8447 22.7988C39.127 23.6344 38.9184 24.1304 38.9436 24.2033C38.9561 24.2638 39.4704 25.0639 39.519 25.2577C39.7024 25.9955 39.8372 27.7271 40.1806 27.9458C40.008 28.3085 40.1429 28.5877 40.1806 28.9379Z" fill="#172D7C"/>
<path d="M35.6117 18.8767C36.3346 19.3976 37.1059 20.0145 37.7065 20.7541C37.6454 20.7168 37.5716 20.875 37.5591 20.875C37.4979 20.8377 36.482 19.858 36.4209 19.8207C36.4209 19.8207 36.3346 20.0021 36.2249 19.9416C35.6243 19.5914 35.2323 19.1558 35.1838 19.1185C35.1586 19.106 34.7307 19.1309 34.7055 19.1185C33.3461 18.3202 32.0245 17.4348 30.6651 16.6614C30.6399 16.5761 30.8719 16.08 30.8971 16.08C31.1542 16.0427 35.0741 18.514 35.5991 18.8891L35.6117 18.8767Z" fill="#AEB5C3"/>
<path d="M39.2241 21.6859C38.8447 22.0735 38.7224 21.1401 38.3179 20.861C38.0248 20.6565 37.9996 20.9338 37.7065 20.74C37.1059 20.0022 36.3471 19.3853 35.6117 18.8644C35.7466 18.1497 38.4653 20.3169 38.6487 20.5587C38.6865 20.6067 39.127 21.4921 39.2241 21.6735V21.6859Z" fill="#AEB5C3"/>
<path d="M40.8406 33.0307C40.4 32.5595 40.3875 32.8244 40.3641 32.8013C40.1429 32.4617 40.1915 31.7968 40.1681 31.2759C40.1681 30.9843 40.2777 30.8634 40.2652 30.5736C40.6086 30.6571 40.3641 30.1131 40.4989 29.9922C40.9395 29.5922 40.8406 32.7533 40.828 33.0307H40.8406Z" fill="#D1D3D5"/>
<path d="M7.11513 23.2113C6.91913 23.7678 6.71059 24.3367 6.45346 24.8452C5.86547 24.2158 5.52201 24.5554 6.17113 25.0763C6.16034 25.0994 6.09745 25.5474 5.97517 25.7786C5.80435 25.6203 5.5598 25.7786 5.02036 25.1972C4.93405 25.0763 4.76321 24.7492 4.73804 24.7243C4.89807 23.9385 5.06891 23.2717 5.39976 22.6174C5.92661 22.9321 6.53973 23.0531 7.11513 23.1989V23.2113Z" fill="#65697F"/>
<path d="M7.59167 22.2672L7.21227 23.1989C7.21227 23.1989 7.15111 23.1989 7.11515 23.1989C6.55054 23.0531 5.92663 22.9197 5.39978 22.6175C6.06149 21.3214 6.45349 22.061 7.57911 22.2672H7.59167Z" fill="#65697F"/>
<path d="M32.8569 54.088C32.7455 50.2727 30.8107 50.806 28.3868 50.8665C32.3661 49.0388 32.465 51.775 33.2849 52.2106C34.4249 52.8168 34.9392 50.9394 32.2923 49.9349C32.2923 49.6557 33.9826 49.91 35.2323 49.5224C35.4031 49.4744 36.0899 48.8681 36.187 49.1117C35.2448 50.9269 34.0437 52.5021 32.8569 54.088Z" fill="#232E4A"/>
<path d="M34.522 49.9953C34.914 49.6557 34.9266 50.5766 34.522 50.2246C34.4357 50.1517 34.4357 50.0682 34.522 49.9953Z" fill="#9BA1B6"/>
<path d="M11.6823 50.1055C11.6823 50.1055 11.8424 51.279 12.2577 50.3349C12.3063 50.3598 12.4178 49.9722 12.8331 50.6247C13.0903 51.0371 13.3348 51.7145 13.5919 52.0914C12.4286 51.3642 11.792 53.7609 12.932 53.2648C13.1766 53.1564 13.2377 53.2773 13.128 52.7937C13.3852 52.7084 13.6908 53.4586 13.7879 52.5626C13.912 52.7439 14.2051 52.9501 14.3651 53.1439C13.6908 53.2897 13.8617 54.6569 14.6456 53.6168C14.8416 53.8835 14.9639 54.0044 15.221 54.1982C15.0143 54.84 15.1599 54.6818 15.417 54.9005C15.417 54.9005 15.4781 55.1779 15.2714 55.1299C14.7805 54.3191 14.6097 55.2152 14.4137 55.1299C14.3759 55.1174 14.1925 54.4631 14.0343 54.4276C13.752 54.3671 13.5919 56.001 11.988 53.1439C11.9754 53.119 12.0258 52.7439 11.8909 52.5021C11.1806 51.1705 10.3481 49.8869 9.89502 48.349C10.5316 48.5428 10.3104 48.4468 10.4704 48.1196C10.7887 48.8823 11.2418 49.4868 11.7075 50.1055H11.6823Z" fill="#393A53"/>
<path d="M18.7975 55.7237C18.7849 55.9281 18.7004 57.1282 18.4666 57.0055C18.7975 56.2322 18.2095 55.5299 17.6593 55.1299C17.7815 54.1254 17.4255 55.4197 17.0839 54.5485L17.6593 54.3174C17.6593 54.3174 18.4433 54.705 18.6141 55.0819C18.6878 55.2508 18.454 55.8072 18.81 55.7237H18.7975Z" fill="#565C6C"/>
<path d="M16.9976 53.9672C17.1558 54.2214 17.0588 54.4756 17.0947 54.5485C17.4256 55.4339 17.7816 54.1254 17.6702 55.1299C17.6468 55.1068 17.3896 55.2401 17.0587 55.1299C16.3611 54.4525 16.5679 54.1378 16.5319 54.0774C16.8879 53.6649 16.9239 53.9796 17.0102 53.9565L16.9976 53.9672Z" fill="#BFB3BD"/>
<path d="M15.7605 53.736C15.9079 53.736 16.0536 53.8214 16.1399 53.9672L15.4782 54.8988C15.4782 54.8988 15.4171 54.8988 15.3811 54.8988C15.124 54.6819 14.9765 54.8383 15.1851 54.1965C15.3433 53.7129 15.6616 53.8089 15.7605 53.7253V53.736Z" fill="#DC6D6B"/>
<path d="M10.5316 51.279C10.8247 51.7519 11.5726 52.6835 11.952 53.1564C13.556 56.0135 13.716 54.3903 13.9965 54.4401C14.1566 54.4756 14.3399 55.1299 14.3777 55.1423C14.5719 55.2259 14.7445 54.3298 15.2336 55.1423C15.4422 55.1903 15.3685 54.8988 15.3811 54.9112C15.4062 54.9112 15.4422 54.9112 15.4781 54.9112C15.5159 54.9112 15.9205 55.3717 16.005 55.3842C16.5192 55.4073 16.4581 54.4881 16.1524 53.9796C16.0661 53.8338 15.9205 53.7378 15.773 53.7485C15.7856 53.7378 15.6742 53.544 16.0554 53.3982C16.2873 53.7005 16.3125 53.7254 16.5318 54.1005C16.5696 54.1485 16.361 54.4756 17.0587 55.153C17.4021 55.2633 17.6467 55.1299 17.6718 55.153C18.2221 55.5531 18.8101 56.2429 18.4792 57.0305C18.713 57.1514 18.7975 55.9531 18.81 55.7468C18.8712 54.8276 18.8101 54.4401 18.6141 53.64C18.3318 52.4773 18.0387 52.5626 17.5244 51.6541C17.9398 51.8354 18.7975 53.0106 18.9935 53.4107C19.9249 55.2508 19.6803 56.3033 18.7975 58.0848C18.7975 58.0848 18.7615 58.1203 18.7004 58.2056C18.1969 58.2288 17.8067 58.2537 18.0387 59.0768C18.2958 60.0582 20.1694 59.0768 20.6963 57.6118C21.6385 57.3825 21.3328 58.0848 21.358 58.1328C21.4066 58.2412 21.5414 58.1683 21.554 58.1932C21.6385 58.4119 21.6385 58.7497 21.6511 58.7746C21.7374 59.0164 21.75 59.2351 21.8471 59.4769C22.4603 61.0379 23.0465 61.0272 24.4058 61.3543C22.4711 62.2255 22.2031 62.5757 20.0831 61.5837C17.377 60.3249 10.5927 52.8418 10.3481 51.3519C10.2996 51.0372 10.4956 51.3039 10.5441 51.2914L10.5316 51.279Z" fill="#393A53"/>
<path d="M21.9334 59.3558L21.8345 59.4768C21.7374 59.235 21.7374 59.0162 21.6385 58.7745C21.9334 58.5327 21.7374 58.81 21.9208 59.3558H21.9334Z" fill="#7B599C"/>
<path d="M16.7656 55.6028C17.4758 55.3966 17.537 57.7221 16.5696 57.0074C16.1524 56.7034 16.557 55.6633 16.7656 55.6028Z" fill="#5E5E7D"/>
<path d="M15.4782 54.9113L16.1399 53.9797C16.4474 54.4882 16.5085 55.4074 15.9943 55.3843C15.9079 55.3843 15.5034 54.9238 15.4674 54.9113H15.4782Z" fill="#8B4783"/>
<path d="M15.4297 55.4926C15.6149 55.409 15.9079 56.026 15.7119 56.1949C15.5033 56.3762 15.0628 55.6739 15.4297 55.4926Z" fill="#962B4B"/>
<path d="M6.45343 31.6261C6.20889 32.1221 6.58828 32.547 5.87802 32.3284C5.66944 30.33 5.48603 29.4233 4.35861 27.9458C4.33524 27.9085 4.64092 27.8854 4.50606 27.7752C2.80324 27.3165 4.65351 27.0124 3.74726 26.0204C3.12152 27.0729 3.01184 26.3475 2.65581 26.8916C2.70616 26.9894 2.81586 26.8915 3.03702 27.0622C2.92554 27.0498 2.95067 27.1707 2.93809 27.1832C2.5461 27.6187 3.4038 27.3396 3.31749 28.1752C3.28152 28.6232 2.60727 28.9503 2.27641 28.817C0.794767 28.2232 2.37528 23.7429 4.79914 25.5475C5.6946 26.2017 5.29002 27.2916 5.89059 27.4729C5.58311 28.321 5.9877 27.9814 6.0866 28.2961C6.17111 28.5628 6.37969 30.8883 6.466 31.6261H6.45343Z" fill="#7D8296"/>
<path d="M5.9752 25.7786C6.27009 26.0329 6.06149 27.0729 6.83288 25.9475C6.6243 29.4589 6.94253 32.9702 7.11515 36.4211C6.80767 33.4307 6.52721 27.3521 5.02039 25.1973C5.55982 25.7893 5.79179 25.6328 5.9752 25.7786Z" fill="#676973"/>
<path d="M4.73806 24.7243C4.73806 24.7243 4.94666 25.0764 5.02039 25.1973C6.51462 27.3645 6.80767 33.4307 7.11515 36.4211C7.17629 37.0522 7.32193 37.8381 7.11515 38.0568C6.84543 35.9251 6.71061 33.7578 6.45348 31.6261C6.36717 30.8883 6.15859 28.5521 6.07408 28.2979C5.97518 27.9814 5.58318 28.3335 5.87807 27.473C5.2775 27.2792 5.66951 26.2017 4.78843 25.5475C2.36278 23.7571 0.794791 28.2356 2.26565 28.817C1.53022 28.3939 1.5788 27.6436 1.45653 27.6436C-0.122214 31.4821 4.07815 32.9471 4.35866 30.1611C4.61579 27.5707 3.18269 29.3379 2.26565 28.817C2.60729 28.9504 3.26902 28.6232 3.30678 28.1752C3.3787 27.3396 2.53358 27.6188 2.92557 27.1832C3.39128 27.6916 3.67357 27.6187 3.02445 27.0622C2.80328 26.8809 2.6936 26.9769 2.64505 26.8916C2.99928 26.3476 3.11079 27.0747 3.73474 26.0204C4.64099 27.0142 2.79252 27.3165 4.49354 27.777C4.6284 27.8979 4.32272 27.9103 4.34609 27.9459C5.47351 29.4233 5.65692 30.3318 5.8655 32.3284C6.14781 35.0165 5.86547 40.0302 6.52717 42.1495C6.58831 44.0021 8.15627 44.7647 8.24078 45.1274C8.63277 46.932 5.49864 46.2066 7.66537 44.6563C5.31524 42.6935 6.64948 37.9963 5.4861 44.7168C5.36383 45.0795 5.22897 45.2608 5.1067 44.7772C4.79922 43.5291 5.87808 40.9867 5.96439 40.2116C6.06148 39.3529 5.75579 31.8697 5.58317 30.9736C5.16781 28.7939 3.52613 27.1352 3.49017 27.9334C6.36715 30.5736 2.54616 33.5409 1.21196 30.6216C0.305707 28.6481 1.60396 27.6187 1.78737 25.8871C2.27645 24.447 3.64843 23.7323 4.7273 24.7137L4.73806 24.7243Z" fill="#AEB5C3"/>
<path d="M5.92663 40.9868C6.02372 41.0099 5.73063 42.4038 5.69467 42.5603C4.93407 45.8423 5.41236 42.3185 5.92663 40.9868Z" fill="#65697F"/>
<path d="M2.93818 27.1833C2.93818 27.1833 2.91485 27.0499 3.03712 27.0623C3.69703 27.6064 3.40389 27.6793 2.93818 27.1833Z" fill="#232E4A"/>
<path d="M13.5811 52.102C13.8131 52.4415 13.752 52.55 13.7772 52.5749C13.6783 53.4709 13.36 52.7331 13.1154 52.8042C12.9194 52.8664 12.9069 53.0709 12.9195 53.2772C11.7795 53.7732 12.4178 51.389 13.5811 52.102Z" fill="#2D244E"/>
<path d="M10.4453 48.1179C10.287 48.4574 10.5064 48.5428 9.86985 48.349C9.18477 48.1428 9.38077 47.7552 9.86985 47.2947C10.1881 47.6698 10.9361 47.0778 10.4453 48.1179Z" fill="#C5A5AF"/>
<path d="M14.3399 53.1545C14.6959 53.615 14.6096 53.6026 14.6222 53.6274C13.8383 54.6693 13.6656 53.3003 14.3399 53.1545Z" fill="#2D244E"/>
<path d="M12.2452 50.3473C11.8424 51.2913 11.7076 50.1535 11.6698 50.1161C12.2344 49.6325 12.2092 50.3224 12.2452 50.3473Z" fill="#5FA45F"/>
<path d="M36.09 20.4022C35.2809 21.7943 34.0815 23.005 33.9952 24.8451C33.641 24.7847 33.053 24.1677 32.857 24.4949C32.857 24.4824 32.8444 24.5678 32.7581 24.2638C32.697 24.022 32.6358 23.7677 32.661 23.501L32.3787 23.2113C32.4399 23.0299 32.305 22.0485 32.2816 21.9881C32.1342 21.6361 27.4807 18.2829 26.8189 17.8349C25.9379 17.2287 22.178 14.6738 21.5037 14.7947C20.842 14.9174 10.4453 22.2298 9.95624 23.2237C9.95624 23.2468 9.97963 23.3571 9.85736 23.3446C9.85736 23.2842 9.6128 23.053 9.95624 22.1694C11.7687 19.2039 19.9736 13.5609 21.7861 13.2817C24.9202 12.7857 33.0764 18.3789 36.0775 20.4146L36.09 20.4022Z" fill="url(#paint0_linear_50_4727)"/>
<path d="M30.2964 44.377C30.2964 44.377 30.1256 44.6064 30.1994 44.7877C30.2227 44.8375 30.6273 45.0438 30.5788 45.5523C30.1994 45.9505 25.7652 50.0681 25.1664 50.5766C25.3013 50.0681 24.4058 51.085 23.6956 51.5082C22.8505 52.0166 21.6871 52.8647 20.9894 51.7393C20.414 49.9347 16.3611 48.0093 17.0947 47.2946C18.8587 48.324 20.574 49.4992 22.275 50.685C22.5573 50.685 24.3321 48.7969 24.7007 48.4573C26.4035 46.9319 28.1783 45.394 29.8325 43.7832C29.8685 44.0019 30.2857 44.3291 30.3091 44.3646L30.2964 44.377Z" fill="#0B1535"/>
<path d="M32.5747 46.1338C33.1375 46.7027 30.8736 47.2112 31.3375 47.7677C29.8685 48.7366 28.448 49.8993 26.8674 50.5767C28.0074 49.6806 29.8811 47.901 31.0445 46.836C31.4239 46.484 31.8644 46.2422 32.1826 45.7817C32.2204 45.8671 32.4901 46.1089 32.562 46.1338H32.5747Z" fill="#9BA1B6"/>
<path d="M36.5665 30.4634C36.4694 30.7176 35.734 31.4572 35.7106 31.5781C35.6477 31.8803 36.3597 35.9251 36.1871 36.9545C36.0774 37.1358 36.0037 37.1127 35.9911 37.1234C36.0397 34.9437 35.6369 32.8368 35.4157 30.6944C35.7106 30.3069 35.0615 29.5318 35.4643 29.1691C35.734 28.9255 36.9351 29.5442 36.5539 30.4527L36.5665 30.4634Z" fill="#95939B"/>
<path d="M35.3293 42.9726C35.0236 43.2019 34.9877 43.6873 34.9499 43.9042C34.914 44.1353 35.1099 44.2189 35.0488 44.3167C34.9499 44.4749 34.29 44.1477 34.094 45.1878H33.9951C34.0563 44.8731 33.6409 45.0314 33.898 44.6065C33.9592 44.3291 34.8528 43.0579 35.4156 41.7974C35.9299 40.6364 36.6779 38.7714 36.9351 37.5233C37.0322 37.0273 37.0933 35.5747 37.3145 34.8351C37.3378 34.2182 37.2407 33.9267 37.2156 33.612C37.4367 32.8866 37.4727 34.6662 37.4115 35.5374C37.1544 39.1945 35.1459 42.5121 35.1333 42.9121C35.1333 42.985 35.2448 42.9726 35.3293 42.9726Z" fill="#EBECEE"/>
<path d="M33.9106 44.6082C33.6535 45.0313 34.0689 44.8731 34.0078 45.1895C33.5924 47.1986 32.465 47.0297 31.3502 47.7675C30.8845 47.211 33.1501 46.7025 32.5873 46.1336C32.6484 46.1461 32.7221 46.1336 32.7833 46.1336C33.3964 46.1087 33.8118 45.3815 33.2615 45.3709C33.934 45.2731 33.7632 44.6082 33.0655 44.4979C33.15 44.4624 33.2975 44.5833 33.2615 44.2686C33.2975 44.2437 33.4198 44.1833 33.4576 44.1477L33.934 44.6188L33.9106 44.6082Z" fill="#9CA5AC"/>
<path d="M33.053 44.498C33.7507 44.6189 33.9107 45.2857 33.249 45.3693C33.8118 45.3817 33.3838 46.1088 32.7707 46.1337L32.109 45.2004C32.1594 44.9941 32.3661 44.8732 32.4884 44.7274C32.6844 44.6794 32.8696 44.5834 33.0656 44.498H33.053Z" fill="#A5E065"/>
<path d="M35.4283 41.8097C34.8654 43.0703 33.9718 44.3414 33.9088 44.6188L33.4324 44.1477C34.3746 43.2267 35.2071 41.1324 35.4283 41.8097Z" fill="#AEB5C3"/>
<path d="M32.7706 46.1336C32.7706 46.1336 32.6358 46.1442 32.5747 46.1336C32.5009 46.1211 32.2312 45.8669 32.1952 45.7816C32.1089 45.6002 32.0604 45.4064 32.0963 45.2002L32.7581 46.1336H32.7706Z" fill="#89C03E"/>
<path d="M33.2363 44.2563C33.2723 44.5817 33.1248 44.4501 33.0403 44.4856C32.8569 44.571 32.661 44.667 32.465 44.715C33.0637 44.0127 33.1626 44.3043 33.2238 44.2438L33.2363 44.2563Z" fill="#738190"/>
<path d="M7.69058 35.0165C7.45683 31.1176 7.50719 28.8064 8.35231 25.0763C8.95108 24.8576 8.35231 25.6577 8.35231 25.7181C8.33972 25.839 8.37568 26.9538 8.35231 27.1227C8.35231 27.1707 8.08257 27.2187 8.06998 27.352C7.92254 28.3814 7.84881 29.217 8.06998 30.2713C7.82544 31.7239 8.04481 33.468 7.69058 35.0059V35.0165Z" fill="#D1D3D5"/>
<path d="M6.45345 24.8453C6.36714 25.0035 6.18371 25.0515 6.17112 25.0746C5.53459 24.5555 5.86546 24.2159 6.45345 24.8453Z" fill="#515888"/>
<path d="M25.1664 57.7096L23.3647 57.9389C23.3539 57.8429 23.3036 57.8056 23.2676 57.7096C22.8145 56.353 21.982 57.6847 21.6511 57.5887C21.9694 53.4231 25.1898 56.3406 25.3624 57.2971C25.4236 57.6491 25.1664 57.6847 25.1664 57.7096Z" fill="#7D8296"/>
<path d="M15.9566 51.5082C15.4908 51.6665 15.8091 52.0043 16.1525 52.2105C16.1759 52.223 16.2622 52.1856 16.2496 52.3314C16.1525 52.4043 15.8343 52.102 15.2948 52.4523C15.2085 51.9083 15.516 51.2291 15.9566 51.5207V51.5082Z" fill="#9CA5AC"/>
<path d="M17.6593 54.3172L17.0839 54.5484C17.0587 54.4755 17.145 54.2088 16.985 53.967C16.9976 53.967 17.0227 53.7127 17.2169 53.7359C17.6089 54.015 17.217 53.9545 17.6467 54.3172H17.6593Z" fill="#9CA5AC"/>
<path d="M23.2676 59.114C23.3899 58.9202 23.4025 58.193 23.3647 57.9388L25.1664 57.7094C25.3732 60.1185 26.4881 57.8304 25.4469 56.1342C24.5892 54.7297 23.1202 54.7777 22.6923 54.0879C23.4511 54.3421 24.5047 54.7421 25.1161 55.3715C27.1498 57.5032 25.5566 61.8733 23.2676 59.114Z" fill="#0B1535"/>
<path d="M24.6882 58.0598C24.6756 58.2056 24.7133 58.3869 24.6882 58.5327C24.3825 60.5293 23.5985 57.8535 24.6882 58.0598Z" fill="#8CC77E"/>
<path d="M24.6882 58.5327C24.7116 58.3869 24.6756 58.218 24.6882 58.0598C25.1539 58.1452 25.4344 59.7185 24.8842 59.5248C25.0802 59.2456 24.9939 58.4954 24.6882 58.5327Z" fill="#708B91"/>
<path d="M16.1399 52.2106C15.809 52.0061 15.4907 51.6665 15.9439 51.5083C16.1525 51.6416 16.2496 51.9564 16.1399 52.2106Z" fill="#576799"/>
<path d="M36.5664 42.9725C37.3378 43.9041 36.1385 44.6313 36.09 44.729C35.9677 44.5584 35.3185 44.6437 35.2808 44.6064C35.2071 44.5459 35.2197 44.0019 34.95 43.9041C34.9877 43.6872 35.0237 43.2018 35.3294 42.9725C35.6494 42.7307 36.2859 42.6329 36.5664 42.9725Z" fill="#F1B3A7"/>
<path d="M39.127 32.4492C38.8213 32.9346 39.2745 33.1284 39.6035 32.9222C39.6413 33.6494 39.911 33.9036 39.5064 34.5561C39.3356 34.2663 38.5642 33.4662 38.8447 34.2058C38.1345 33.5764 38.7476 32.051 38.9922 32.099C39.1396 32.1346 39.1145 32.4492 39.1396 32.4492H39.127Z" fill="#AAABC8"/>
<path d="M38.2819 24.8451C38.2334 25.1723 38.4402 25.5847 37.8036 26.1892C41.0007 27.3164 39.5676 32.8617 39.5676 30.2215L39.0407 31.2153C39.8858 31.3469 39.7276 32.1345 40.1807 31.2758C40.1915 31.7949 40.1556 32.4617 40.3768 32.8012C39.7025 33.2848 40.339 34.3996 40.1807 35.1374C40.1807 35.1747 39.9344 35.5623 39.7995 35.7188C39.751 35.3187 39.7025 34.8831 39.5191 34.5453C39.9236 33.8911 39.6539 33.6244 39.6161 32.9096C40.927 32.0865 39.2134 32.4367 39.1397 32.4367C39.1271 32.4367 39.1397 32.1221 38.9922 32.0865C38.7477 32.0385 38.1471 33.5639 38.8448 34.1933C38.9059 34.2413 39.1396 34.06 39.127 34.3622C39.127 34.4476 38.0122 35.452 38.5139 35.7063C38.5265 35.7063 38.6973 35.4645 38.7099 35.4769C38.7477 35.5125 38.7836 35.8397 39.0407 35.9499C39.0281 36.0334 38.9796 36.1063 38.9437 36.1792C38.0248 36.3979 38.5391 36.9295 38.5643 37.0024C38.6254 37.221 38.6991 37.365 38.7602 37.5837C37.4979 36.2041 37.1312 39.1821 38.183 39.3403C38.183 39.4239 37.8648 40.6471 37.8036 40.9742C36.5054 40.8053 36.1026 42.1494 36.7625 42.7308L36.5665 42.9601C36.286 42.6205 35.6603 42.7183 35.3312 42.9601C35.2575 42.9601 35.1352 42.9726 35.1352 42.8997C35.146 42.4996 37.1545 39.1945 37.4116 35.5249C37.4728 34.6538 37.4368 32.8616 37.2157 33.5995C37.1671 32.6074 36.8614 31.6136 36.8363 30.6215C36.5791 30.1735 36.6169 31.2384 36.5558 30.4508C36.9352 29.5317 35.734 28.9254 35.4643 29.169C35.0615 29.5192 35.7106 30.3068 35.4157 30.6944C35.342 29.9672 34.9752 29.7006 35.3187 28.8774C35.8563 27.6311 37.7425 28.1271 37.7928 29.1085C37.7928 29.3254 36.9711 30.778 37.9385 31.2758C38.539 31.578 39.2979 29.9317 38.931 29.9921C39.8499 27.4249 36.1637 28.2232 35.2197 26.3706C34.7181 25.3661 34.7307 24.1553 35.1227 23.101C35.4895 22.4236 35.8455 21.709 36.5432 21.4672C38.2946 20.8378 38.7836 23.2592 38.2082 23.453C36.8489 22.509 36.126 25.535 37.4494 26.1412C36.8003 25.2078 37.2768 24.1304 38.2567 24.8576L38.2819 24.8451Z" fill="#AEB5C3"/>
<path d="M39.5064 34.5578C39.6898 34.8956 39.7383 35.3312 39.7887 35.7313C39.7509 35.7686 39.7887 36.2877 39.0281 35.9624C38.7709 35.8522 38.735 35.525 38.699 35.4895C38.699 35.4895 38.5264 35.7313 38.503 35.7188C38.0122 35.4646 39.1144 34.4601 39.1144 34.3747C39.1144 34.0725 38.895 34.2538 38.8339 34.2058C38.5516 33.468 39.3356 34.2663 39.4938 34.5578H39.5064Z" fill="#54309F"/>
<path d="M38.7476 37.5964C38.7961 37.7902 38.931 37.7297 38.9436 38.1777C38.3682 37.3066 37.523 37.3901 37.7065 38.4675C37.7316 38.5884 38.1596 39.0258 38.1848 39.3405C37.1311 39.1947 37.4853 36.2043 38.7601 37.5839L38.7476 37.5964Z" fill="#F1B3A7"/>
<path d="M38.9437 36.1917C38.834 36.4708 38.7225 36.7606 38.5643 37.0148C38.5517 36.9419 38.0248 36.421 38.9437 36.1917Z" fill="#EBECEE"/>
<path d="M35.7106 24.022C35.9911 24.6638 35.894 24.5909 36.3723 25.4265C36.5791 25.7892 36.7265 26.1537 37.0321 26.4203C36.4693 26.4808 38.6613 27.2311 38.2207 27.7645C37.9636 27.848 36.5683 27.0622 36.2248 27.1831C36.3094 26.6497 35.8454 26.7102 35.7465 26.6017C35.3186 26.0328 34.8403 25.1367 35.3186 24.5554C34.7792 24.1909 35.2448 22.9446 35.5146 23.501C35.4408 24.2033 35.6854 23.9971 35.7106 24.022Z" fill="#95939B"/>
<path d="M36.3723 25.4266C35.894 24.591 35.9911 24.6639 35.7106 24.022C35.8203 23.2593 35.9551 22.4717 36.5179 22.0361C36.8362 22.5695 36.0648 22.3881 36.286 24.2034C36.3112 24.3741 36.8865 24.6763 36.3831 25.4266H36.3723Z" fill="#AEB5C3"/>
<path d="M39.6053 32.9096C39.2744 33.1159 38.8213 32.9096 39.127 32.4367C39.2007 32.4367 40.9143 32.074 39.6053 32.9096Z" fill="#B483C5"/>
<path d="M38.895 28.2375C39.1018 28.2375 39.2133 28.5398 39.091 28.5878C39.0784 28.5878 38.7961 28.2856 38.895 28.2375Z" fill="#65697F"/>
<path d="M38.2819 24.8451C38.4041 24.1428 39.6898 26.783 39.3716 26.9519C39.1504 26.4079 38.6613 25.1242 38.2819 24.8451Z" fill="#AEB5C3"/>
<path d="M22.1295 1.80371C22.2391 1.86416 23.3055 2.56645 23.3666 2.6269C23.6237 3.12293 23.4511 3.07491 23.4637 3.0998C20.1443 -0.0488489 15.2103 4.16477 17.1451 8.9473C17.7331 7.20319 19.4718 5.85912 20.3295 8.01571C20.1947 8.01571 20.2918 8.17216 20.1336 8.24505C20.1821 7.88236 19.961 7.70104 19.7542 7.5428C19.729 7.51969 19.693 7.20318 19.2273 7.31341C19.1284 7.37385 19.2021 7.65124 19.177 7.66369C18.1736 7.38634 17.3896 9.56603 18.2221 8.59707C18.125 8.97221 18.8965 8.35353 18.3211 9.06824C18.2474 9.16603 18.1988 9.17843 18.1251 9.29932C18.1125 9.32244 17.9165 9.23887 17.8427 9.35977C18.1484 9.8558 16.7657 11.1643 16.3251 10.9332C15.5897 10.5581 14.4749 7.78456 14.9891 5.08572C15.124 6.04223 14.928 6.96142 15.0881 7.95527C15.1114 8.09928 15.7246 10.0141 15.748 9.06824C16.3252 10.3394 16.9976 10.1954 16.4097 8.7784C17.0228 8.40326 16.068 7.67614 16.7891 5.03597C16.8268 4.91507 17.6468 3.23317 17.7457 3.11049C18.8102 1.79129 20.7216 1.77883 22.1169 1.82861L22.1295 1.80371Z" fill="#1E2024"/>
<path d="M26.0242 4.72113C24.3214 -0.377869 19.6067 -1.41793 16.5211 2.55389C18.161 1.98319 16.4474 2.58942 16.7171 3.31658C16.2137 4.15219 15.5897 6.16121 15.5771 7.17816C15.0755 7.05727 15.5412 8.34091 15.676 8.7036C15.7605 8.93473 15.7605 9.04318 15.7731 9.05562C15.7371 9.99968 15.124 8.0867 15.1114 7.94091C14.9658 6.96129 15.1491 6.04032 15.0143 5.07136C16.1651 -0.861473 24.627 -2.33889 26.0349 4.72113H26.0242Z" fill="#676973"/>
<path d="M21.75 9.86639L20.1821 10.9207C20.0832 10.5456 19.765 10.654 19.569 10.5687C19.4952 10.5331 18.7005 9.8184 18.1484 9.7455C18.197 9.5766 18.3085 9.27439 18.1484 9.27439C18.2222 9.15172 18.2707 9.12859 18.3444 9.04326C18.8839 9.12859 19.3118 8.63253 19.7649 8.34095C20.022 8.1845 20.1335 8.23251 20.1443 8.22007C20.3044 8.13473 20.1947 8.00139 20.3403 7.99072C20.2306 8.35341 21.5415 8.12409 21.8597 8.98281C22.142 9.73308 21.7734 9.80596 21.7609 9.85396L21.75 9.86639Z" fill="#B58BB4"/>
<path d="M26.0242 4.72103C26.2184 5.53175 26.0242 5.72552 26.0242 5.7753C25.4362 3.94584 25.6681 7.61544 25.5459 8.35327H25.3499C25.4722 7.78434 25.5819 4.10409 24.6882 4.61257C24.4922 3.9103 23.8305 3.06224 23.354 2.62665C23.2928 2.57865 22.2392 1.86391 22.1169 1.80346C20.6227 1.06386 19.7164 0.930516 18.2222 1.80346C17.6216 2.15371 17.0965 2.66219 16.7046 3.3289C16.4348 2.60174 18.161 1.99728 16.5085 2.56621C19.5941 -1.40561 24.3088 -0.376218 26.0116 4.73345L26.0242 4.72103Z" fill="#AEB5C3"/>
<path d="M17.7565 3.08554C17.6594 3.20643 16.8395 4.90256 16.8017 5.01101C16.0789 7.65118 17.0355 8.37836 16.4223 8.7535C17.0103 10.1705 16.336 10.3145 15.7606 9.04328C15.7606 9.03084 15.748 8.92235 15.6635 8.693C16.0303 8.58277 15.5646 7.91788 15.5646 7.16583C15.5646 6.16132 16.2011 4.13986 16.7046 3.30425C17.0966 2.64998 17.6216 2.1415 18.2222 1.77881C18.0747 2.33529 16.4583 3.82514 17.7457 3.06242L17.7565 3.08554Z" fill="#676973"/>
<path d="M24.6881 4.61263C25.2024 6.46519 24.7996 8.98269 23.8304 10.4601C23.6111 10.4601 23.3899 10.4601 23.1705 10.4601C24.4184 9.39517 24.6881 7.09454 24.4076 5.37532C24.2476 4.36903 23.6237 3.54591 23.451 3.09788C23.451 3.07476 23.6236 3.12274 23.3539 2.62671C23.8304 3.06229 24.4921 3.92102 24.6881 4.61263Z" fill="#565C6C"/>
<path d="M22.1295 1.80192C20.7323 1.75391 18.8353 1.76633 17.7565 3.08553C16.4708 3.83758 18.0748 2.34773 18.2348 1.80192C19.729 0.930747 20.6352 1.06409 22.1295 1.80192Z" fill="#565C6C"/>
<path d="M19.177 7.65106C18.4667 8.18443 18.6267 8.12401 18.2221 8.5827C17.377 9.53921 18.161 7.36126 19.177 7.65106Z" fill="#EED7D5"/>
<path d="M26.0242 5.77538C26.0727 6.37986 26.1698 6.98612 26.2201 7.5906C26.1698 8.43866 25.2887 11.6353 24.4562 11.5144C23.5733 11.3811 25.2024 10.4122 25.5458 8.35335C25.6681 7.61552 25.4362 3.95837 26.0242 5.77538Z" fill="#EBECEE"/>
<path d="M25.3624 8.35347C25.2761 8.75349 23.7945 11.9021 23.4636 10.9812C23.4277 10.8852 23.647 10.7518 23.843 10.4603C24.8104 8.98462 25.215 6.46534 24.7007 4.61277C25.5944 4.10429 25.4847 7.78454 25.3624 8.35347Z" fill="#95939B"/>
<path d="M15.5772 7.1781C15.5772 7.9177 16.0429 8.59509 15.6742 8.70532C15.552 8.3533 15.0881 7.0572 15.5772 7.1781Z" fill="#676973"/>
<path d="M19.7542 7.53023C19.3118 7.53023 19.7542 8.06362 19.7542 8.35342C19.2885 8.64322 18.8713 9.14101 18.3318 9.05567C18.909 8.34096 18.1377 8.95968 18.2348 8.58277C18.6394 8.12407 18.4793 8.18449 19.1896 7.65112C19.2148 7.63867 19.141 7.36132 19.2381 7.2991C19.7038 7.19065 19.7416 7.51779 19.7649 7.53023H19.7542Z" fill="#504F63"/>
<path d="M19.7541 7.53027C19.9609 7.68851 20.182 7.86989 20.1335 8.23258C20.1209 8.23258 20.0112 8.19701 19.7541 8.35346C19.7541 8.06366 19.3118 7.54272 19.7541 7.53027Z" fill="#676973"/>
<path d="M19.0438 8.00317H19.1415C19.4904 8.05137 18.9806 8.27269 19.0438 8.00317Z" fill="#D1D3D5"/>
<path d="M12.9069 53.2649C12.8817 53.0587 12.9069 52.8649 13.1029 52.792C13.2252 53.2774 13.164 53.1547 12.9069 53.2649Z" fill="#5B5174"/>
<path d="M2.27642 28.817C3.18267 29.3379 4.62832 27.5689 4.37119 30.1611C4.10147 32.9453 -0.111482 31.4928 1.46906 27.6418C1.59133 27.6418 1.54279 28.3921 2.27642 28.817Z" fill="#7B599C"/>
<path d="M3.64837 29.7612C4.23635 29.7256 2.54611 31.9533 2.841 30.5239C2.86438 30.3906 3.59982 29.7736 3.64837 29.7612Z" fill="#623A7F"/>
<path d="M32.3913 23.2112L21.9946 15.8364C19.1536 17.7743 16.3485 19.8687 13.3978 21.5648C12.7973 21.9151 12.2093 22.3275 11.5961 22.6173C11.0818 22.8591 10.519 23.0174 9.97961 23.1987C10.4579 22.2067 20.8546 14.8924 21.5289 14.7715C22.2014 14.6506 25.9613 17.2055 26.8441 17.8099C27.504 18.258 32.1593 21.6128 32.305 21.9631C32.3302 22.0235 32.4651 23.0174 32.4039 23.1863L32.3913 23.2112Z" fill="#03081A"/>
<path d="M33.9952 24.845C33.9593 25.5846 34.0689 25.3784 34.0941 25.5473C33.1015 26.1891 33.3587 25.4389 32.857 24.7242C32.8444 24.6637 32.8696 24.5552 32.857 24.4948C33.0656 24.1676 33.641 24.7846 33.9952 24.845Z" fill="#213261"/>
<path d="M30.4799 42.9724C30.3091 43.1413 30.0034 43.6018 29.82 43.7956C28.1657 45.4171 26.4017 46.9425 24.6881 48.4697L23.9779 49.0511L24.3087 48.2261C24.9201 47.5132 26.0224 45.8775 26.4881 45.417C26.6103 45.3086 28.6799 43.8063 29.0485 43.5414C29.4765 43.2373 30.0645 42.512 30.4691 42.96L30.4799 42.9724Z" fill="#312364"/>
<path d="M34.094 25.5473C34.1911 26.31 34.4249 27.1225 34.6694 27.8248C34.682 28.175 34.3997 28.5146 34.4735 29.7004C34.5094 30.3067 35.1226 32.7407 34.4735 32.922C34.3009 31.6135 33.2112 26.214 32.8569 24.7366C33.3586 25.4513 33.1015 26.2015 34.094 25.5597V25.5473Z" fill="#0B1535"/>
<path d="M36.6653 20.6314L36.5664 21.4546C35.8687 21.7088 35.502 22.4111 35.1459 23.0903C34.9391 23.4654 34.7791 23.9258 34.4842 24.2032C34.522 25.6931 34.9266 27.0976 35.2934 28.5875L36.383 27.7145C35.5505 27.3163 34.8043 26.3349 35.2448 26.3705C36.1744 28.2355 39.8731 27.4248 38.9543 29.992C38.8932 29.992 38.1092 31.057 37.9996 29.9316C37.9258 29.144 38.8932 29.0356 38.6127 28.9378C37.167 29.1813 38.2818 31.857 38.9436 29.992C39.2978 29.9316 38.5516 31.5779 37.951 31.2757C36.9836 30.7797 37.8161 29.3253 37.8035 29.1084C37.755 28.127 35.8688 27.631 35.3293 28.8773C34.9751 29.7005 35.3545 29.9671 35.4282 30.6943C35.6494 32.8366 36.0522 34.9435 36.0036 37.1232C35.3059 39.6069 32.2437 43.7956 30.5913 45.5522C30.6398 45.0437 30.2227 44.8375 30.2119 44.7895C30.1381 44.6188 30.3342 44.425 30.309 44.377C31.5461 43.0578 33.3334 41.0825 34.2037 39.4611C34.6442 38.6379 34.8528 37.669 35.3419 36.8814C35.3419 36.7729 35.1585 36.4458 35.1459 36.4103C35.0722 34.9808 34.8762 34.9079 34.5705 33.722C34.5471 33.4305 34.5094 33.1887 34.4735 32.8971C35.1226 32.7158 34.5094 30.2818 34.4735 29.6773C34.3997 28.4897 34.6802 28.1626 34.6694 27.7999C34.4357 27.0852 34.1911 26.2745 34.094 25.5242C34.0688 25.3535 33.9592 25.5598 33.9951 24.8219C34.0814 22.98 35.2808 21.7693 36.0899 20.3772C36.1259 20.4021 36.4208 20.4501 36.6653 20.6083V20.6314Z" fill="#03081A"/>
<path d="M35.1459 23.0904C34.7431 24.1553 34.7431 25.366 35.2448 26.3599C34.8042 26.3226 35.5504 27.304 36.383 27.704L35.2933 28.5752C34.9265 27.0853 34.5219 25.6683 34.486 24.1926C34.7791 23.9135 34.9499 23.453 35.1459 23.0779V23.0904Z" fill="#232E4A"/>
<path d="M38.9436 29.992C38.2819 31.857 37.167 29.1812 38.6127 28.9395C38.8932 29.0355 37.9259 29.1439 37.9996 29.9315C38.0985 31.057 38.8806 30.0044 38.9543 29.992H38.9436Z" fill="#AEB5C3"/>
<path d="M38.5138 29.2898C38.539 30.7068 38.183 30.2712 38.183 29.8107C38.183 29.7734 38.3915 29.3982 38.5138 29.2898Z" fill="#738190"/>
<path d="M22.2265 50.1037C22.2876 50.0201 22.3361 49.8868 22.4224 49.8743L22.6184 49.9952C22.6922 49.9828 22.7407 49.9223 22.8144 49.8743C23.1813 49.6325 23.9526 48.676 24.3338 48.2404L24.003 49.0636L24.7132 48.4822C24.3446 48.8093 22.5699 50.6975 22.2876 50.7099C20.5866 49.5241 18.8712 48.3489 17.1072 47.3195C16.2261 46.811 14.0702 45.4065 14.0702 46.0359C13.2377 45.3692 12.6497 45.1042 11.8909 44.2793C11.9646 44.2793 12.0491 44.2686 12.0869 44.2793C12.2955 44.3895 12.5274 44.7771 12.7971 44.7522C12.9679 44.7273 14.2302 43.4561 14.5611 43.2268C14.3885 43.8686 16.5804 43.081 16.7404 42.7539C16.9364 42.3787 16.789 42.2827 16.7404 41.9307C17.5981 43.2392 21.8956 49.268 22.1527 50.0557C22.1653 50.093 21.8344 50.7224 22.2516 50.1161L22.2265 50.1037Z" fill="#4D2D76"/>
<path d="M12.3441 38.2985C11.6698 38.7821 12.4663 39.8239 12.4411 40.1137C12.4052 40.5137 11.5115 41.12 11.4863 41.2889C11.4504 41.5432 12.0383 42.4996 12.0995 42.5121C12.2955 42.5601 14.4263 40.5618 13.8617 38.5403C14.1799 38.6861 14.4496 38.9279 14.7193 39.1821C14.7571 39.4488 12.5634 42.8748 12.2452 43.8082C12.184 43.9895 12.0258 44.05 12.0492 44.2793C12.0132 44.2687 11.9269 44.2793 11.8532 44.2793C10.7401 43.0686 10.8372 42.8517 10.2367 41.4702L10.715 41.2409C11.0944 42.0516 11.0818 41.9059 11.0944 41.9432C11.1555 42.2934 11.2292 42.8019 11.5241 42.9957C11.5115 42.5601 11.2544 42.2828 11.0944 41.9432C10.9847 41.3494 10.7401 41.4578 11.1932 40.9493C10.4938 40.0657 10.1036 38.1651 9.42931 38.3216L9.28186 37.8505C9.6253 37.8736 9.9184 37.6318 10.2367 37.4985C11.8046 36.7962 10.6898 37.6442 11.2292 38.2007C11.3893 38.3589 12.0743 38.286 12.3189 38.3216L12.3441 38.2985Z" fill="#383999"/>
<path d="M15.0017 22.5091C15.025 22.9926 13.5686 22.63 12.576 22.7384C12.0743 22.7989 10.6898 23.2113 10.0532 23.3802C9.96872 23.622 13.5434 24.7599 13.8508 24.9537V25.0746H13.752L10.091 23.67C9.85723 23.8762 9.96871 24.2514 9.94353 24.6034C9.83385 26.1893 9.91839 27.8605 9.84646 29.4588C9.13621 30.4882 9.03728 36.9544 9.26924 37.8256L9.41669 38.2985C10.0784 38.1403 10.483 40.0533 11.1807 40.9262C10.7401 41.4347 10.9721 41.3245 11.0818 41.9183C11.071 41.8828 11.0818 42.0267 10.7024 41.216C10.2259 40.1866 9.88244 38.8923 9.36818 39.1092C9.31963 38.8923 9.07329 38.6132 8.98878 37.9963C8.75502 33.2724 9.77274 27.6187 9.84646 23.3198C9.95615 23.3322 9.93095 23.222 9.94353 23.1989C10.483 23.0175 11.0458 22.8593 11.5601 22.6175C12.6983 22.509 13.8383 22.5197 14.9765 22.4966L15.0017 22.5091Z" fill="#6B4980"/>
<path d="M17.0946 47.307C16.361 48.0217 20.4139 49.9453 20.9893 51.7499C18.7974 49.62 16.3844 47.899 14.0576 46.0233C14.0576 45.3939 16.2261 46.7985 17.0946 47.307Z" fill="#312364"/>
<path d="M10.7275 41.2159L10.2492 41.4453C10.1647 41.264 9.8824 41.1786 9.39331 39.1091C9.89498 38.8904 10.2384 40.1865 10.7275 41.2159Z" fill="#383999"/>
<path d="M32.3913 23.2112L32.6736 23.501C32.6484 23.7677 32.6969 24.0219 32.7707 24.2637C32.233 24.5678 33.1267 26.1891 32.5747 26.2496C32.305 24.2637 32.5621 23.7926 31.913 26.831C31.8033 27.3644 31.7421 27.9457 31.6325 28.4666C31.1668 28.4169 31.9508 26.2745 32.109 25.2451C32.1593 24.9429 31.9759 24.7615 32.0119 24.4219C32.0119 24.3135 32.269 24.422 32.2942 24.3011C32.5387 23.0779 31.2153 23.8762 30.3954 23.8886C30.1508 23.8886 30.212 23.7677 30.1994 23.7677C30.5428 23.8761 30.5428 23.005 30.4817 22.7756C30.3702 22.3756 25.3984 19.0581 24.6396 18.6225C24.9093 19.4936 25.999 20.3772 26.4881 21.1399C26.979 21.8902 26.4647 22.7027 27.86 22.6049C27.5058 23.101 28.7537 23.8282 29.0486 23.8886C28.7662 24.5909 29.6366 25.2576 29.8074 25.7661C30.016 26.383 30.1131 28.2604 31.0445 30.561C31.2027 30.9486 31.2405 31.0215 31.4239 31.3842C32.3661 33.2243 33.3353 33.8057 34.3638 35.2475C34.425 35.3311 34.8044 35.8289 34.5958 35.9498L31.3628 32.2073L29.8937 38.5776C30.1382 39.0967 30.4314 36.7001 30.5051 36.6521C30.6885 36.7854 31.2027 38.0193 31.2639 38.0566C31.4599 38.1651 34.0455 36.6147 34.6317 36.6521C34.5598 36.6876 34.5094 36.7356 34.4357 36.773C32.9433 37.5837 31.3753 38.2504 29.8325 38.8798C29.6114 39.134 29.428 39.4238 29.2194 39.703L29.1223 39.5821C29.1834 39.4736 29.5143 38.9633 29.3543 38.8798C28.3743 39.3029 27.432 39.8594 26.4521 40.2843C26.3172 40.3448 26.2075 40.4657 26.0727 40.5137C26.8441 39.6052 28.5469 39.2069 29.5862 38.5882C30.3216 36.3978 30.6885 34.0848 31.2027 31.8073C31.0805 31.3486 30.8359 31.0944 30.8233 31.0446C30.7011 30.609 30.6399 30.7174 30.6273 30.6943C30.604 30.609 30.7622 30.5486 30.7262 30.4028C30.6885 30.2944 30.0159 28.9022 30.0645 28.2355C29.1708 25.8514 29.5143 24.4824 27.5058 23.2112C27.4681 23.1863 27.4806 22.7259 26.7955 22.7383C26.1338 23.1632 25.4236 23.501 24.7493 23.9135L24.8967 23.5614L26.6607 22.5694C26.6104 22.3756 25.8893 22.1445 25.7041 22.0485C24.8104 21.5649 23.8808 21.1648 22.9979 20.6439L22.6671 20.7648C21.6026 21.6733 19.0187 22.7987 18.6267 23.101C18.4559 23.2343 18.4918 23.2841 18.5781 23.453C18.3695 23.4174 18.2096 23.4281 18.0028 23.453C17.6216 23.4885 14.928 24.8824 14.108 25.1473C14.2663 27.4372 13.8743 30.3548 14.0091 32.4616C14.0217 32.7034 13.8868 32.7407 13.912 32.8741C14.3651 33.3345 14.8183 33.8306 15.2462 34.3391C15.6742 34.8475 16.4222 35.4414 16.6668 35.7436C17.4256 36.6521 18.125 37.7295 18.8461 38.6611L14.0469 33.395L14.8543 38.9527C14.9028 39.0611 15.7731 39.4736 15.9943 39.5945C15.9943 39.5945 16.0177 39.7278 15.8954 39.7154C15.6634 39.6176 15.4674 39.5447 15.2337 39.4842C15.2103 39.4842 15.088 39.2425 14.9028 39.2549C13.9732 40.7323 13.2378 42.416 12.1967 43.8206C12.5149 42.8996 14.7068 39.4736 14.6709 39.1945C14.4012 38.9402 14.144 38.6984 13.8131 38.5527C13.2144 38.286 12.8835 38.3944 12.2955 38.3233C12.5401 38.1526 13.1406 38.1402 13.4337 38.2006C14.0954 38.3464 14.6097 38.9633 14.6709 38.8424C14.4263 37.5108 14.3274 36.1436 14.0955 34.8102C14.0577 34.6164 13.8509 33.1763 13.7646 33.1763C13.4337 33.8181 13.0795 34.4724 12.5761 34.9328L13.8131 32.7638C13.3366 32.2322 13.2144 31.6028 12.9573 30.9486L13.6172 32.2927H13.8131V24.9784C14.0577 24.9784 18.7615 23.2948 17.9902 22.6423C18.0135 22.6423 18.2707 22.3756 18.3696 22.4111C18.3696 22.4236 18.6393 22.3631 18.6501 22.4716C17.4022 23.7677 19.7164 22.3987 21.1243 21.4795C21.3814 21.3089 22.374 20.9231 22.4603 20.6066C22.4477 20.3772 22.374 20.1959 22.3614 19.9648C22.3254 19.3959 22.178 18.7665 22.0791 18.21C22.5322 18.2829 22.3991 20.0377 22.7893 20.4377C24.0768 21.092 25.3499 21.492 26.3047 22.1943C27.3098 22.2174 24.5785 19.675 24.5911 19.3852C23.1328 20.2208 23.3414 15.728 21.8831 17.2784C21.8345 17.0348 22.0072 16.6241 21.6511 16.5761C21.4192 17.0846 21.1495 17.5201 20.8438 17.9806L20.7449 17.8579C20.9283 17.5326 21.1243 17.193 21.3203 16.8659L21.1729 16.697C20.1335 17.9913 17.1576 18.8767 17.4256 19.9648C17.3536 19.8439 17.2673 19.723 17.1936 19.6145C16.5697 19.4456 14.108 21.6484 13.3474 21.6004C16.2999 19.8936 19.1032 17.81 21.946 15.8721L32.3427 23.2467L32.3913 23.2112Z" fill="#B6A7CD"/>
<path d="M32.8569 24.493C32.8695 24.5535 32.8443 24.6637 32.8569 24.7242C33.2111 26.2016 34.3008 31.6134 34.4734 32.9095C34.5094 33.1993 34.5471 33.4305 34.5705 33.7327C34.5705 33.7203 34.4123 33.7807 34.3745 33.6723C34.3637 33.6118 34.4123 32.8722 34.2774 32.3886C34.0329 31.457 33.7506 31.1299 33.702 30.9841C33.5294 30.3298 33.506 28.5377 33.0403 28.6462L32.758 27.823C32.8317 27.3998 32.6357 26.71 32.562 26.2495C33.114 26.1891 32.2204 24.5659 32.758 24.2637C32.8443 24.5659 32.8569 24.4823 32.8569 24.493Z" fill="#938AB8"/>
<path d="M19.9357 41.568C20.5237 41.7974 20.9049 42.0036 21.5522 42.1494C21.5774 42.1494 21.7122 42.4392 22.0305 42.3787C22.0179 42.4516 21.9442 42.6098 21.9334 42.6098C21.8723 42.681 21.7608 42.4392 21.7374 42.8996C21.6997 43.8206 22.0431 46.1567 22.1168 47.2821C22.178 48.2031 22.2013 49.1596 22.2139 50.093C21.7985 50.6975 22.1294 50.0805 22.1168 50.0325C21.8597 49.2449 17.5604 43.2019 16.7027 41.9075C16.4096 41.4595 16.1525 40.8408 15.8468 40.3804C16.5319 40.7448 18.6141 44.4624 19.0294 44.594C19.6552 44.7878 20.5615 43.4437 20.5974 43.2517C20.7808 42.3556 20.3169 42.0516 19.9357 41.5555V41.568Z" fill="#170F53"/>
<path d="M24.6881 46.3613C24.0138 47.4156 22.9133 48.893 22.5933 49.9828L22.3973 49.862C22.3254 49.0015 22.275 48.1427 22.2013 47.2822C22.079 45.7319 22.079 44.1585 21.9208 42.6082C21.9208 42.6082 21.9945 42.4393 22.0179 42.3788C22.5214 42.3788 24.003 41.4934 24.5784 41.2036C23.5247 43.0082 23.7693 44.7025 24.6755 46.3506L24.6881 46.3613Z" fill="#3D1873"/>
<path d="M26.5006 45.4296C26.0223 45.89 24.9326 47.5257 24.3213 48.2404C23.9419 48.6884 23.1705 49.6449 22.8019 49.8743C24.0642 47.7799 28.2646 40.999 29.2554 39.7029C29.4639 39.4363 29.6473 39.134 29.8685 38.8798C31.4239 38.2504 32.9793 37.5837 34.4735 36.7729C33.8478 37.3294 33.3227 38.0566 32.7095 38.6486C31.4239 39.8843 29.0594 41.591 28.056 42.7431C27.7126 43.1289 25.9378 45.5878 26.488 45.4296H26.5006Z" fill="#170F53"/>
<path d="M15.2821 39.4611C15.0627 39.4842 15.6381 40.0656 15.8574 40.3927C16.1649 40.8532 16.4221 41.4577 16.7152 41.9181C16.7637 42.2577 16.9112 42.3661 16.7152 42.7413C15.8215 42.0266 15.3432 42.6329 14.5359 43.2142C14.2176 43.4436 12.9553 44.7148 12.7719 44.7397C12.5022 44.7752 12.2702 44.3894 12.0616 44.2667C12.0257 44.0374 12.1839 43.9769 12.2576 43.7956C13.2988 42.4035 14.0342 40.7074 14.9638 39.23C15.1472 39.23 15.2821 39.4611 15.2947 39.4611H15.2821Z" fill="#170F53"/>
<path d="M29.2571 39.703C28.2645 41.0098 24.0515 47.7907 22.8018 49.8744C22.7407 49.9099 22.6796 49.9703 22.6058 49.9952C22.9133 48.9054 24.0155 47.4279 24.7006 46.3736C25.1789 45.6358 25.6428 44.8855 26.1211 44.1459C26.9537 42.8623 28.5576 40.768 29.1581 39.5803L29.2571 39.703Z" fill="#B6A7CD"/>
<path d="M16.7152 42.7432C16.5444 43.0686 14.3525 43.8562 14.5359 43.2144C15.3559 42.633 15.8216 42.0409 16.7152 42.7432Z" fill="#4D2D76"/>
<path d="M22.4099 49.8724C22.3362 49.8973 22.275 50.0182 22.2139 50.1035C22.2013 49.1701 22.178 48.2261 22.1168 47.2944H22.2139C22.275 48.1532 22.3254 49.0137 22.4099 49.8724Z" fill="#866791"/>
<path d="M34.1912 39.4612C33.3227 41.0702 31.5335 43.0561 30.2964 44.3771C30.2838 44.3398 29.8685 44.0126 29.8199 43.7957C30.0034 43.6144 30.3216 43.1414 30.4799 42.9725C31.6936 41.7618 32.8444 40.3928 34.1912 39.4612Z" fill="#170F53"/>
<path d="M10.4452 24.845C10.4704 24.9659 10.5064 25.2326 10.5441 25.3179C9.89501 25.4619 10.8138 27.8959 10.6412 28.8293C10.0173 29.0586 10.6286 33.8536 10.8372 35.5497C10.9847 36.7605 11.6571 36.4582 10.2618 37.4752C9.95612 37.6085 9.66127 37.8503 9.30704 37.8254C9.07329 36.9667 9.17214 30.5005 9.8824 29.4587C9.94354 27.8728 9.88243 26.1891 9.97953 24.6032C10.4704 24.5783 10.4326 24.8094 10.4578 24.8325L10.4452 24.845Z" fill="#172D7C"/>
<path d="M10.6287 28.8169C11.1681 30.9841 10.8858 33.6244 12.1966 35.3667C12.3189 35.1854 12.4663 35.0395 12.6264 34.8955C13.128 34.4351 13.4823 33.7808 13.8131 33.139C13.8994 33.139 14.1081 34.5809 14.144 34.7746C13.5075 34.5204 12.4178 36.7606 13.4823 38.1651C13.1892 38.1047 12.5886 38.1047 12.3441 38.286C12.0996 38.2487 11.4001 38.3216 11.2544 38.1651C10.7024 37.6069 11.8298 36.7605 10.2618 37.4628C11.6464 36.4334 10.9721 36.7481 10.8373 35.5373C10.6287 33.8288 10.0173 29.0462 10.6412 28.8169H10.6287Z" fill="#54309F"/>
<path d="M13.8617 38.5277C14.4263 40.5509 12.2955 42.5599 12.0995 42.4995C12.0384 42.487 11.4504 41.5181 11.4863 41.2763C11.5115 41.1074 12.4052 40.5012 12.4411 40.1029C12.4663 39.8113 11.6698 38.7819 12.3441 38.2859C12.932 38.3588 13.2629 38.2485 13.8617 38.5152V38.5277Z" fill="#172D7C"/>
<path d="M11.1069 41.9182C11.267 42.2453 11.5241 42.5369 11.5349 42.9725C11.2418 42.7911 11.1807 42.2702 11.1069 41.9182Z" fill="#6B4980"/>
<path d="M18.0387 22.6173C18.8101 23.2715 14.108 24.9659 13.8617 24.9535C13.5434 24.7597 9.97956 23.6218 10.0659 23.38C10.7024 23.2111 12.0743 22.7987 12.5886 22.7382C13.5812 22.6173 15.0376 22.98 15.0143 22.5089C16.005 22.484 17.0102 22.4111 18.0009 22.3879C18.0747 22.3879 18.0387 22.6173 18.0513 22.6173H18.0387Z" fill="#414070"/>
<path d="M13.7646 25.0763C13.4589 31.226 11.9773 26.2746 10.4327 24.8452C10.4093 24.8203 10.4327 24.5785 9.95621 24.6158C9.97959 24.2513 9.85732 23.8762 10.1037 23.6824L13.7646 25.0869V25.0763Z" fill="#623A7F"/>
<path d="M13.7645 25.0743H13.8616V32.2677H13.6656L13.0057 30.9236C12.2577 29.0106 11.267 27.2185 10.5316 25.3055C10.5064 25.2326 10.4578 24.9534 10.4326 24.8325C11.9646 26.2619 13.4463 31.2152 13.7645 25.0637V25.0743Z" fill="#170F53"/>
<path d="M34.3871 35.2581C34.7917 35.379 34.6208 34.3016 34.5831 33.7327C34.8887 34.9203 35.0847 34.9915 35.1585 36.4209C34.9265 36.6147 34.718 36.6396 34.682 36.6502C34.0814 36.6147 31.4975 38.165 31.3141 38.0566C31.253 38.0192 30.7387 36.7836 30.5535 36.6502C30.4816 36.7124 30.1867 39.1091 29.9421 38.5757L31.4112 32.2073L34.6442 35.948C34.8402 35.8271 34.4734 35.3311 34.4122 35.2457L34.3871 35.2581Z" fill="#938AB8"/>
<path d="M35.3312 36.8938C33.1015 38.7819 31.2764 41.5305 29.0612 43.5645C28.6926 43.8187 26.6103 45.321 26.5006 45.4419C25.9504 45.6002 27.7252 43.1413 28.0686 42.7538C29.0719 41.6035 31.4365 39.8967 32.7221 38.661C33.3335 38.0797 33.8477 37.3543 34.4861 36.7836C34.5598 36.748 34.6084 36.7 34.6821 36.6627C34.718 36.6396 34.9266 36.6147 35.1586 36.4333C35.1586 36.4582 35.342 36.7836 35.3546 36.9063L35.3312 36.8938Z" fill="#312364"/>
<path d="M35.3312 36.8921C34.8403 37.6797 34.6317 38.6362 34.1912 39.4718C32.8444 40.4052 31.6936 41.7724 30.4817 42.9831C30.0771 42.5476 29.4765 43.2747 29.0593 43.5645C31.2764 41.543 33.1015 38.7944 35.3312 36.8921Z" fill="#54309F"/>
<path d="M22.6922 25.5474L24.0263 26.1287C24.332 27.3146 29.489 29.8819 30.5787 30.6943C28.4964 32.4136 26.3531 34.1204 24.1612 35.6103C22.5321 36.7126 20.7196 37.6317 19.1768 38.7091C19.7162 39.255 21.3687 41.5431 21.5521 41.6889C21.491 41.664 21.4298 41.7369 21.455 41.8098C20.6225 40.7928 19.7036 39.8239 18.8963 38.7696C18.8837 38.7465 18.9071 38.6735 18.8963 38.6487C18.1609 37.7046 17.4758 36.6396 16.7152 35.7311L17.0946 29.5316C17.0946 29.5316 17.1324 29.4338 17.2906 29.3005C18.9683 27.8355 20.9156 26.7705 22.7047 25.5598L22.6922 25.5474Z" fill="url(#paint1_linear_50_4727)"/>
<path d="M30.8718 31.0447C30.8718 31.0447 31.129 31.3344 31.253 31.8074C30.7388 34.0831 30.3702 36.4086 29.6366 38.5883C28.5955 39.2176 26.8926 39.6052 26.1212 40.5137C26.096 40.5262 26.0601 40.5013 26.0223 40.5137C25.9864 40.5262 26.0727 40.3199 25.3121 40.6346C24.5047 40.9742 22.8505 42.1476 22.0791 42.0392C22.0054 42.0392 22.0431 41.8098 22.0305 41.8098C24.9704 38.2362 27.6029 34.2058 30.8611 31.0447H30.8718Z" fill="#8367AA"/>
<path d="M30.6758 30.6927C30.6758 30.6927 30.7495 30.6091 30.8718 31.0447C27.6028 34.1934 24.9829 38.2256 22.043 41.8099C21.883 41.7494 21.8111 41.8828 21.5647 41.689C21.3813 41.5432 19.7289 39.2426 19.1895 38.7092C20.7322 37.6318 22.5573 36.7109 24.1738 35.6103C26.3657 34.1205 28.509 32.4137 30.5913 30.6927H30.6884H30.6758Z" fill="#67539E"/>
<path d="M26.88 23.9135C26.6103 25.9723 28.1046 24.1073 29.2572 26.5412C29.4514 26.9768 29.5502 28.5627 30.113 28.2355C30.0771 28.9023 30.7496 30.2819 30.7748 30.4028C30.8107 30.5486 30.6525 30.609 30.6776 30.6944H30.5787C29.4891 29.8819 24.3339 27.3164 24.0264 26.1287C23.9904 25.9954 23.8682 25.8265 23.9293 25.6078C24.0264 25.3056 26.2309 24.0219 26.6355 23.7926C26.8441 23.6699 26.8567 23.9135 26.8674 23.9135H26.88Z" fill="#B6A7CD"/>
<path d="M22.6923 20.7525L25.7293 22.0361C25.9127 22.1321 26.6355 22.3615 26.6841 22.5553L24.9201 23.5491L24.7745 23.8993C24.1379 24.2869 23.4996 24.7723 22.8756 25.183C22.0179 25.4141 19.9735 23.9847 18.6015 23.4282C18.5152 23.2575 18.4792 23.2095 18.6501 23.0762C19.0421 22.7739 21.6134 21.6485 22.6923 20.74V20.7525Z" fill="#AAABC8"/>
<path d="M10.5315 25.3162C11.2651 27.2185 12.2576 29.0106 13.0057 30.9361C13.2628 31.5886 13.3851 32.2197 13.8616 32.7513L12.6245 34.9186C12.4663 35.0644 12.3314 35.1977 12.1965 35.3915C10.8857 33.6474 11.168 31.009 10.6286 28.8399C10.8012 27.9083 9.88238 25.4744 10.5315 25.3286V25.3162Z" fill="#3D1873"/>
<path d="M18.8964 38.6488C18.8964 38.6488 18.8838 38.7466 18.8964 38.7697C18.3318 39.0719 16.2748 39.3155 16.0428 39.5928C15.8217 39.4595 14.9532 39.0613 14.9028 38.951L14.0955 33.3933L18.8964 38.6612V38.6488Z" fill="#5844B0"/>
<path d="M18.6141 23.4405C19.9861 23.9987 22.0431 25.4264 22.8882 25.197C22.8756 25.197 22.7174 25.5366 22.6922 25.5473C20.8923 26.758 18.9575 27.8248 17.2799 29.2897C17.2295 28.7564 17.3644 28.8417 17.377 28.8168C17.8049 29.0959 17.5604 28.4417 17.573 28.4061C18.0009 26.8309 18.9575 24.3738 18.0513 24.3738C18.0872 24.1196 18.0998 23.7071 18.0513 23.4405C18.2472 23.4173 18.4181 23.4049 18.6267 23.4405H18.6141Z" fill="#8F5DC4"/>
<path d="M32.5746 26.2496C32.6357 26.7207 32.8443 27.3999 32.7706 27.823L33.0529 28.6462C33.5186 28.5377 33.5419 30.3299 33.7146 30.9841C33.7505 31.1299 34.0328 31.4552 34.29 32.3886C34.4248 32.8722 34.3637 33.6119 34.3871 33.6723C34.4123 33.7683 34.5705 33.7203 34.5831 33.7327C34.6316 34.3017 34.7917 35.3791 34.3871 35.2582C33.3586 33.8181 32.3912 33.2367 31.449 31.3948C31.5335 31.3948 31.5335 31.3717 31.546 31.2739C31.5586 31.0321 31.4849 30.8028 31.6449 30.8028C32.0117 30.8863 32.0477 31.2739 32.2203 31.2135C31.9632 29.2774 33.3334 28.1502 31.9381 26.831C32.5872 23.7783 32.33 24.2636 32.5997 26.2496H32.5746Z" fill="#8A6BD3"/>
<path d="M15.9565 39.7031C17.1684 40.1866 18.5152 41.0222 19.9483 41.5787C20.3403 42.0765 20.7934 42.3788 20.6099 43.2749C20.574 43.4686 19.6678 44.8127 19.042 44.6189C18.6267 44.4856 16.5444 40.768 15.8593 40.4053C15.6382 40.0657 15.0628 39.4968 15.2822 39.4719C15.5285 39.5324 15.7119 39.6177 15.9438 39.7031H15.9565Z" fill="#170F53"/>
<path d="M31.6324 28.4648C31.485 29.1795 31.3016 29.8943 31.057 30.5716C30.1256 28.271 30.0393 26.3954 29.8199 25.7767C30.2119 25.1971 30.6399 24.6868 30.3954 23.901C31.2153 23.8886 32.5387 23.0885 32.2924 24.3117C32.269 24.4219 32.0244 24.3117 32.0118 24.4326C31.9741 24.7722 32.1467 24.9535 32.109 25.2575C31.9507 26.2852 31.1667 28.4293 31.6324 28.4773V28.4648Z" fill="#7571D1"/>
<path d="M30.1993 23.7925C29.9547 23.7925 29.525 24.0094 29.0593 23.9134C28.7662 23.8529 27.5165 23.1134 27.8725 22.6298C26.4646 22.7258 26.9788 21.9275 26.5005 21.1648C26.0114 20.4021 24.92 19.5167 24.6521 18.6455C25.4109 19.0811 30.3953 22.3986 30.4924 22.7987C30.5535 23.0405 30.5535 23.9009 30.2118 23.7925H30.1993Z" fill="#9981DE"/>
<path d="M29.1582 39.5802C28.5577 40.7678 26.9538 42.8497 26.1212 44.1458C25.0801 44.1209 25.5944 41.6763 26.5006 40.2824C27.4806 39.8593 28.4228 39.3153 29.4028 38.8779C29.5628 38.9633 29.2194 39.4717 29.1709 39.5802H29.1582Z" fill="#424B8B"/>
<path d="M26.1211 44.1458C25.6428 44.8854 25.1663 45.6232 24.7006 46.3735C23.7943 44.7272 23.5498 43.0311 24.6017 41.2283C25.08 40.9972 25.5583 40.7927 26.0222 40.526C26.0474 40.5136 26.0852 40.5384 26.1211 40.526C26.256 40.4656 26.3657 40.3447 26.5005 40.2949C25.5943 41.6888 25.08 44.1334 26.1211 44.1583V44.1458Z" fill="#54309F"/>
<path d="M16.7152 35.7186C16.4581 35.4163 15.7244 34.8225 15.2947 34.314C15.4673 33.4553 14.9638 32.6428 14.9153 31.7361C15.7118 30.9965 16.2998 30.2338 17.0946 29.5066L16.7152 35.7061V35.7186Z" fill="#6E62C2"/>
<path d="M22.1293 18.1727C22.0682 17.8705 22.0071 17.5433 21.9333 17.2411C23.3898 15.6783 23.1812 20.1835 24.6395 19.3479C24.6395 19.6377 27.3582 22.1819 26.3531 22.157C25.3983 21.4547 24.1252 21.0547 22.8396 20.4022C22.4476 20.0022 22.5698 18.2456 22.1293 18.1727Z" fill="#B0A4EB"/>
<path d="M21.9334 17.2411C22.0054 17.5433 22.0683 17.8704 22.1294 18.1727C21.4299 18.0642 20.4266 20.8004 22.4099 19.9293C22.4225 20.1586 22.4836 20.3417 22.5088 20.5711C22.4351 20.8858 21.4425 21.2734 21.1728 21.4423C20.5974 20.6671 19.3981 21.14 18.7975 21.6734C18.846 20.8502 20.2306 18.8999 20.8923 17.9309C21.198 17.4704 21.4551 17.0348 21.6997 16.5264C22.0665 16.5744 21.8831 16.9869 21.9334 17.2287V17.2411Z" fill="#8F5DC4"/>
<path d="M20.7935 17.8224C19.9735 19.25 18.9684 20.571 18.1862 22.036C17.9272 22.0111 17.6594 20.2439 17.4759 19.9292C17.2062 18.8393 20.1821 17.9558 21.2232 16.6597L21.3688 16.8286C21.1728 17.1557 20.9895 17.4953 20.7935 17.8224Z" fill="#7A45C5"/>
<path d="M27.5418 23.2112C27.3943 23.3925 27.0275 23.8281 26.88 23.9134C26.88 23.9134 26.8567 23.6823 26.6481 23.7926C26.2435 24.0219 24.039 25.2931 23.9419 25.6078C23.8808 25.8265 24.0031 26.0078 24.039 26.1287L22.7048 25.5473C22.7048 25.5473 22.8757 25.2096 22.9008 25.1971C23.5248 24.7722 24.1613 24.2886 24.7978 23.9134C25.4721 23.5134 26.1698 23.1632 26.8441 22.7383C27.5292 22.7258 27.5166 23.1863 27.5543 23.2112H27.5418Z" fill="#B6A7CD"/>
<path d="M30.1004 28.2355C29.5376 28.5626 29.4513 26.9643 29.2427 26.5412C28.0919 24.0948 26.5977 25.9722 26.8674 23.9134C27.0274 23.8281 27.3817 23.3925 27.5291 23.2112C29.5502 24.4824 29.2067 25.8496 30.0878 28.2355H30.1004Z" fill="#AA94C5"/>
<path d="M14.144 34.787C14.3651 36.1186 14.4748 37.4858 14.7193 38.8193C14.6582 38.9402 14.1439 38.3215 13.4822 38.1775C12.4177 36.7729 13.5074 34.5328 14.144 34.787Z" fill="#5844B0"/>
<path d="M31.6324 30.8153C31.2638 30.73 31.2279 31.3238 31.5335 31.2865C31.5335 31.3718 31.5209 31.4198 31.4364 31.4073C31.253 31.0446 31.2152 30.9842 31.057 30.5842C31.3016 29.9068 31.4724 29.1921 31.6324 28.4774C31.7421 27.944 31.8032 27.3751 31.9129 26.8435C33.3101 28.1627 31.9381 29.2881 32.1952 31.226C32.0244 31.2989 31.9867 30.9113 31.6199 30.8153H31.6324Z" fill="#6E62C2"/>
<path d="M21.1746 21.4545C19.7649 22.3737 17.4507 23.7427 18.7004 22.4466C18.6753 22.3382 18.4181 22.4111 18.4181 22.3862C18.321 21.8172 18.7741 21.7087 18.7975 21.6839C19.3981 21.1523 20.5974 20.6669 21.1746 21.4545Z" fill="#5844B0"/>
<path d="M30.1994 23.7925C30.1994 23.7925 30.1383 23.9134 30.3954 23.9134C30.6525 24.6885 30.212 25.2077 29.82 25.7891C29.6474 25.2806 28.7789 24.6281 29.0594 23.9134C29.5251 24.0094 29.9548 23.8031 30.1994 23.7925Z" fill="#9981DE"/>
<path d="M15.2822 34.3141C14.8542 33.8056 14.4137 33.3078 13.948 32.8491C13.912 32.7157 14.0577 32.6784 14.0469 32.4366C14.4137 32.3886 14.6223 32.0011 14.9028 31.7344C14.9531 32.6304 15.4548 33.4536 15.2822 34.3141Z" fill="#5844B0"/>
<path d="M22.1293 18.1726C22.239 18.7308 22.3865 19.3602 22.4099 19.9292C20.414 20.8003 21.4299 18.0641 22.1293 18.1726Z" fill="#7A45C5"/>
<path d="M21.4676 41.9182C21.4676 41.9182 21.7607 41.8204 21.5647 42.1475C20.9156 41.9911 20.5362 41.7849 19.9482 41.5662C18.5151 41.0097 17.1684 40.1866 15.9564 39.6905C16.0661 39.703 16.0427 39.5802 16.0553 39.5696C17.5244 40.4159 19.8637 41.3492 21.4676 41.9057V41.9182Z" fill="#B6A7CD"/>
<path d="M25.7418 22.0361L22.7048 20.7525L23.0357 20.6316C23.9167 21.1525 24.8482 21.5507 25.7418 22.0361Z" fill="#9397C0"/>
<path d="M26.0224 40.5136C25.5585 40.7803 25.0676 40.9865 24.6019 41.2159C24.0265 41.5074 22.5322 42.3911 22.0431 42.3911C21.7249 42.4515 21.59 42.1617 21.5648 42.1617C21.7608 41.8222 21.4804 41.9555 21.4678 41.9306C21.4678 41.895 21.4678 41.8453 21.4678 41.8097C21.4426 41.7493 21.4911 41.6764 21.5648 41.6888C21.8094 41.8826 21.8831 41.7493 22.0431 41.8097C22.0431 41.8097 22.0054 42.0284 22.0917 42.0391C22.8505 42.1493 24.5174 40.9741 25.3247 40.6345C26.0835 40.3198 25.999 40.5385 26.0349 40.5136H26.0224Z" fill="#D5CADA"/>
<path d="M21.9334 42.6206C22.0916 44.1709 22.1042 45.7443 22.2139 47.2946H22.1168C22.0431 46.1692 21.6996 43.8189 21.7374 42.9121C21.7608 42.4517 21.8723 42.6934 21.9334 42.6206Z" fill="#AB9DAB"/>
<path d="M20.8922 17.9432C20.2305 18.9228 18.846 20.8607 18.7974 21.6839C18.7615 21.7088 18.3191 21.8173 18.418 22.3862C18.3191 22.3506 18.062 22.6173 18.0386 22.6173C18.0386 22.6173 18.062 22.3862 17.9901 22.3862C16.9975 22.4111 15.9924 22.484 15.0016 22.5071C13.8616 22.532 12.7108 22.5071 11.5852 22.6298C12.2092 22.3382 12.7845 21.9275 13.3851 21.5754C14.1439 21.6234 16.6055 19.4207 17.2294 19.5896C17.3158 19.698 17.4021 19.8189 17.4632 19.9416C17.6466 20.2563 17.9164 22.0235 18.1735 22.0484C18.9575 20.5834 19.9608 19.2624 20.7807 17.833L20.8796 17.9557L20.8922 17.9432Z" fill="#8A6BD3"/>
<path d="M17.046 20.9816C17.6592 20.7878 17.7437 21.6483 17.9523 22.0963C16.2495 22.9319 16.4832 21.1647 17.046 20.9816Z" fill="#7A45C5"/>
<path d="M18.8963 38.7588C19.7036 39.8113 20.6225 40.7803 21.455 41.7972C21.455 41.8346 21.455 41.8826 21.455 41.9181C19.8511 41.3616 17.5118 40.43 16.0427 39.582C16.2621 39.3028 18.3191 39.061 18.8963 38.7588Z" fill="#54309F"/>
<path d="M17.3769 28.8168C17.5855 27.3394 17.8679 25.8495 18.0387 24.3721C18.9575 24.3721 17.9901 26.8309 17.5604 28.4043C17.5604 28.4417 17.7941 29.0959 17.3644 28.8168H17.3769Z" fill="#7A45C5"/>
<path d="M18.0387 24.3738C17.8661 25.8512 17.5855 27.3393 17.3769 28.8168C17.3769 28.8417 17.2295 28.7564 17.2799 29.2897C17.1198 29.4231 17.0946 29.5191 17.0839 29.5191C16.2747 30.2338 15.6993 31.0089 14.9028 31.7468C14.6223 32.0134 14.4137 32.401 14.0469 32.449C13.912 30.3422 14.2914 27.4247 14.144 25.1366C14.9639 24.8699 17.6593 23.4778 18.0387 23.4404C18.0872 23.7071 18.0746 24.1196 18.0387 24.3738Z" fill="#A072B3"/>
<path d="M17.2295 28.0061C17.3643 28.6728 17.0335 29.1315 16.6541 29.5315L16.5084 29.3626L17.2187 28.0186L17.2295 28.0061Z" fill="#7A45C5"/>
<path d="M31.6325 30.8153C31.485 30.8153 31.5588 31.0446 31.5336 31.2864C31.2279 31.3237 31.2639 30.7299 31.6325 30.8153Z" fill="#B0A4EB"/>
<defs>
<linearGradient id="paint0_linear_50_4727" x1="24.8716" y1="15.0489" x2="23.8397" y2="18.6164" gradientUnits="userSpaceOnUse">
<stop stop-color="#1B254D"/>
<stop offset="1" stop-color="#2C417C"/>
</linearGradient>
<linearGradient id="paint1_linear_50_4727" x1="28.4605" y1="33.4306" x2="17.5122" y2="33.8634" gradientUnits="userSpaceOnUse">
<stop stop-color="#8776C7"/>
<stop offset="1" stop-color="#A088CA"/>
</linearGradient>
</defs>
</svg>
