<svg width="95" height="51" viewBox="0 0 95 51" fill="none" xmlns="http://www.w3.org/2000/svg">
<path d="M68.5801 22.4015C68.5801 20.0351 66.2138 17.7612 61.9846 16.0668C57.7573 14.3707 51.9997 13.3858 45.9382 13.3218C39.8786 13.2595 33.9933 14.1201 29.5376 15.7255C25.0801 17.3292 22.4045 19.5479 22.0773 21.9108L45.3125 22.4015H68.5801Z" fill="#DDD9D7"/>
<path d="M68.5801 22.4015C68.5801 20.0351 66.2138 17.7612 61.9846 16.0668C57.7573 14.3707 51.9997 13.3858 45.9382 13.3218C39.8786 13.2595 33.9933 14.1201 29.5376 15.7255C25.0801 17.3292 22.4045 19.5479 22.0773 21.9108L45.3125 22.4015H68.5801Z" fill="#DDD9D7"/>
<path d="M61.233 18.4279C45.1039 9.95085 37.5842 16.0899 34.2954 17.0358C2.6414 26.0924 20.628 27.2676 10.7419 24.2754C9.36458 22.8833 0.755208 20.4013 0 18.2216C0.436942 17.3505 1.897 13.608 2.86978 13.5244C11.7327 10.9571 31.1164 2.03211 40.2634 4.90163C48.79 3.32819 47.5979 6.79153 50.3346 7.32312C68.7959 10.9571 57.047 10.9571 68.3427 3.81177C98.0656 15.8001 92.6964 18.2216 94.2896 18.4279C94.66 15.1832 78.6819 23.0291 69.8532 20.6431" fill="#833D2A"/>
<path d="M24.0174 20.3765C24.5209 20.4743 39.5963 26.2755 45.9238 27.2445C55.1086 29.1184 53.7241 20.6432 81.9545 18.2217C80.5609 30.3914 62.6859 34.1925 49.9642 35.9615C34.5903 38.1039 25.9144 32.3399 23.4798 33.0422C17.3212 34.8219 33.4323 47.5978 9.39873 29.1184C5.82408 26.3822 2.85361 21.1161 0 18.2217C10.9271 21.5268 12.79 18.2697 24.0336 20.3765H24.0174Z" fill="#DC8F6F"/>
<path d="M94.2896 18.4261C81.9527 31.1167 73.0071 51.1803 52.0123 50.9136C11.7309 43.6491 41.4879 44.3514 49.9642 35.9597C62.6859 34.1801 78.0939 30.5958 72.5377 19.4306C81.584 17.8572 94.6582 15.1815 94.2896 18.4261Z" fill="#AC5F42"/>
<path d="M68.3445 3.81364C60.4059 8.53573 68.7977 13.3787 50.3346 7.325C47.7507 6.47694 25.5117 12.9556 16.9868 14.529C7.8398 11.6595 3.5081 19.1782 1.66324 14.5895C7.03421 10.9572 10.0551 8.53575 16.7674 6.11425C18.0099 5.66622 38.2171 -5.76565 68.3445 3.81364Z" fill="#C87E61"/>
<path d="M49.9642 35.9615C40.7003 43.8553 79.4695 50.238 50.3346 50.9154C21.8021 50.9154 18.2437 39.2542 8.03935 27.9094C32.073 46.3871 17.3032 34.8219 23.4636 33.0422C25.8964 32.3399 34.5741 38.1163 49.948 35.9615H49.9642Z" fill="#AC5F42"/>
</svg>
