<svg width="108" height="47" viewBox="0 0 108 47" fill="none" xmlns="http://www.w3.org/2000/svg">
<path d="M27.5165 18.1452C28.056 18.243 46.965 21.0645 53.8841 21.0645C59.2731 21.0645 59.309 18.4368 89.5084 15.8091C88.0267 29.0064 68.8858 33.124 55.2795 35.0494C38.8339 37.3749 29.5376 31.1149 26.9304 31.8777C20.3295 33.8138 37.5842 47.6672 11.855 27.6267C8.04474 24.6594 3.06039 17.6367 0 14.5005C11.6824 18.0847 15.4908 15.8695 27.5165 18.1452Z" fill="#DC8F6F"/>
<path d="M62.8603 21.0644C55.6714 24.9989 50.2105 23.4005 46.6952 22.3711C28.7302 17.1156 32.3301 21.0644 21.554 21.0644C17.9649 21.0644 0.819941 16.8614 0 14.5004C0.465712 13.5563 5.63347 14.7422 6.66199 14.6586C16.165 11.8727 36.8973 2.19737 46.6952 5.31046C55.8314 3.6019 54.5458 7.35681 57.4713 7.93818C77.2254 11.8727 64.6602 11.8727 76.7363 4.13525C108.552 17.1281 106.053 15.5902 107.756 15.8196C100.567 25.0113 84.3784 20.1914 79.0128 19.7559" fill="#833D2A"/>
<path d="M105.968 17.1282C92.7666 30.8837 78.1317 46.2981 55.6715 46.0083C12.5652 38.1375 44.4045 38.9003 53.4796 29.7939C67.0859 27.8684 79.0254 35.4974 86.2143 21.0644C95.9007 19.3559 89.8033 19.7559 105.968 17.1282Z" fill="#AC5F42"/>
<path d="M76.7492 4.13538C68.2621 9.25749 77.2383 14.5005 57.4842 7.93831C54.7169 7.01736 30.9224 14.0401 21.7988 15.7486C12.0009 12.6355 17.9778 14.5005 0.0128174 14.5005C7.20168 13.1937 14.378 9.24507 21.5669 6.62979C22.9011 6.1462 44.5287 -6.25286 76.76 4.13538H76.7492Z" fill="#C87E61"/>
<path d="M53.8842 30.2544C43.964 38.815 85.0509 45.2812 53.8842 46.0084C23.354 46.0084 14.5126 30.738 3.58728 18.4368C29.3183 38.4754 14.9406 27.2515 21.5415 25.3136C24.1379 24.5509 37.4368 32.5799 53.8842 30.2544Z" fill="#AC5F42"/>
</svg>
